<svg xmlns="http://www.w3.org/2000/svg" width="402.7" height="156" class="drawsvg-initialized"><style>.st0{fill:#231815}.st1{fill:none;stroke:#fff;stroke-width:10;stroke-miterlimit:10}</style><g mask="url(#masking)" fill="#fff"><path class="st0" d="M44.3 104c.5.5.7 1.2.5 1.9v.5c0 .2 0 .3-.1.5-.1.1-.1.2-.2.3l-.3.3c-.1.1-.2.2-.3.2s-.2.1-.3.2c-.2.1-.3.2-.4.1l-.4-.1c-.1 0-.2-.1-.1-.2 0-.1.1-.2.1-.4.1-.2.1-.5.2-.7 0-.2.1-.4.2-.7.1-.4 0-.6-.3-.5-.2 0-.5.1-.8.2l-1 .3-1 .3c-.3.1-.5.2-.8.2-.1 0-.1.1-.2.2l-.1.4c-.2.4-.3.7-.5 1.1-.2.4-.4.8-.7 1.1v.1c-.2.4-.3.8-.5 1.2-.2.4-.3.8-.5 1.2-.2.4-.3.8-.5 1.3s-.4.9-.6 1.3c-.1.1-.1.3-.2.4 0 .1 0 .3-.1.4l-.8 1.7c-.3.6-.5 1.1-.8 1.7-.2.3-.3.6-.4.9l-.3.9c-.1.3-.3.7-.5 1-.2.3-.4.7-.5 1 0 .2-.1.5-.2.7l-.3.9c-.1.3-.2.6-.3.8-.1.3-.3.6-.4.9-.2.3-.3.6-.4.9-.1.3-.1.6-.2.9 0 .3-.1.6-.2.9 0 .1-.1.3-.1.5s-.1.3-.1.5c-.2.6-.4 1.2-.6 1.7l-.6 1.8c-.1.1-.1.1-.1.2s-.1.2-.1.2l-.2.2c0 .1 0 .2.1.3v.2c-.2.4-.4.8-.3 1.2 0 .4-.1.8-.3 1.1-.1.1-.1.2-.1.3l-.1.3c-.1.4-.3.8-.5 1.2-.2.4-.3.8-.4 1.1-.1.3-.2.7-.3 1-.1.3-.1.7-.2 1-.1.4-.3.8-.4 1.2-.1.4-.2.8-.4 1.2-.1.2-.1.4-.1.7s-.1.4-.1.7c0 .1 0 .3-.1.4 0 .1-.1.2-.1.4 0 .1-.1.2-.2.4-.1.1-.1.2-.2.3l-.3.6c-.1.3-.1.7-.1 1s-.1.7-.2 1.1c-.1.1-.2.3-.3.3-.1.2-.2.4-.4.5l.1.1.2-.1c.2-.2.3-.1.2.2v1.3c-.1.3-.2.5-.2.8 0 .2 0 .5.1.7 0 .2.1.4.1.7.1.2.1.5.1.8 0 .1 0 .2.1.3 0 .1.1.2.1.3 0 .2.2.4.4.4s.5 0 .7-.1c.1 0 .1 0 .2.1l.2.2c-.1.2-.2.3-.4.4-.2.1-.4.2-.5.2-.2 0-.3.1-.5.2s-.5.1-.7.1c-.2 0-.4-.1-.7-.1-.4-.1-.7-.3-1-.4-.3-.2-.6-.4-.9-.7l-.1-.1c-.1-.4-.3-.8-.4-1.2-.1-.4-.2-.9-.3-1.3-.2-.7-.3-1.3-.3-2v-1.2-1.2c.1-.7.1-1.3.2-2s.2-1.3.3-2c.1-.3.1-.7.2-1l.3-1v-.2-.1c-.1-.2-.2-.4-.1-.6.1-.2.2-.5.3-.7.1-.3.2-.5.3-.8.1-.3.2-.7.3-1.1.1-.4.2-.7.3-1.1.1-.4.2-.7.3-1.1s.2-.8.3-1.1l.3-.9.3-.9c.2-.6.4-1.3.5-1.9l.3-.9c.1-.3.2-.6.2-.9.1-.5.3-.9.4-1.4.1-.5.3-.9.4-1.3.1-.1.1-.2.1-.3 0-.1.1-.2.1-.3v-.2-.2c-.1.1-.2.1-.3.2-.3.3-.6.6-.9 1-.1.1-.2.2-.3.4-.2.6-.7 1.1-1.2 1.4l-.3.2c-.1.1-.2.2-.2.3-.1.3-.3.6-.6.9-.3.2-.5.5-.8.7-.6.6-1.1 1.2-1.6 1.9-.2.3-.5.6-.7.9-.3.3-.5.6-.8.8-.3.2-.6.4-.8.7l-.8.8-.4.4-.4.5h-.1c-.3 0-.6.2-.8.4-.2.2-.5.4-.8.5-.1.1-.3.1-.4.2-.1.1-.3.2-.4.3l-.1.1-.1.1c-.5.4-1 .7-1.6 1-.5.3-1 .5-1.6.7l-1.1-.2c-.4.1-.8.3-1.2.4-.2.1-.4.1-.7.1H4.9c-.2 0-.3 0-.4-.2h-.4c-.3.1-.6.1-.9 0-.2-.2-.4-.4-.5-.6l-.3-.2-.2-.2c-.1-.1-.3-.2-.4-.4-.1-.1-.2-.3-.3-.4l-.6-1c-.2-.3-.4-.7-.6-1-.1-.3-.2-.7-.3-1-.1-.4-.1-.7 0-1.1 0-.2 0-.4-.1-.6-.1-.6-.1-1.2 0-1.8l.3-1.8.6-2.1c.2-.7.5-1.4.8-2.1.3-.6.5-1.2.7-1.8.2-.6.5-1.2.8-1.8l1.2-2.4c.4-.8.8-1.6 1.2-2.5.1-.2.3-.5.4-.7s.3-.4.4-.7c.4-.6.7-1.2 1-1.8.3-.6.7-1.2 1.1-1.8.5-.8 1-1.5 1.5-2.2.5-.7 1-1.5 1.6-2.2l1.4-1.9c.5-.7.9-1.3 1.4-1.9.3-.4.6-.8.9-1.1.3-.4.6-.7.9-1.1.3-.4.7-.9 1-1.3.3-.4.7-.9 1-1.3l1.3-1.4 1.3-1.4c.7-.7 1.3-1.4 2-2.1.5-.5 1.1-1 1.7-1.4l1-.7c.3-.2.7-.4 1-.5 1-.6 2.3-.6 3.4-.1.2.1.4.3.6.5.2.2.4.3.6.5s.2.2.3.4c.1.1.2.3.2.4.1.1.1.3.1.4v.4s0 .1-.1.1l-.1.1-.1.2c0 .1-.1.1-.1.2-.1.1-.2.3-.3.3-.1.1-.2.1-.3 0-.2-.3-.5-.4-.8-.3-.4.2-.7.3-1 .6-.3.2-.6.3-.9.5l-.8.6-.8.7c-.3.2-.6.5-.8.7l-.9.9-.9.9c-.4.4-.7.8-1 1.2l-.9 1.2c-.1.2-.3.3-.5.5l-.5.5-2.6 3.3c-.3.4-.6.8-.8 1.1-.3.4-.5.7-.8 1-.9 1-1.7 2-2.4 3.1l-2.1 3.3-1.3 2.2-1.4 2.2c-.2.4-.4.7-.6 1.1l-.6 1.1-.7 1.2c-.2.4-.5.8-.7 1.3l-1 2.2c-.3.7-.7 1.4-1 2.2-.6 1.5-1.1 3.1-1.4 4.7-.1.1-.1.3-.1.4v.4c0 .3 0 .6-.1.9 0 .3-.1.6-.1.9 0 .4.2.5.5.3.1-.1.3-.1.4 0 .3.1.5.2.8.2.4 0 .8-.1 1.1-.4.3-.1.5-.3.8-.4.3-.1.5-.2.7-.4l2-1.3c.7-.5 1.4-1 2-1.5.4-.4.9-.8 1.3-1.1l1.3-1.1c.2-.2.5-.4.7-.7l.7-.7 1.5-1.6c.5-.5 1-1 1.5-1.6.4-.4.8-.9 1.2-1.3.4-.5.7-.9 1.1-1.3.1-.1.2-.3.4-.4v.1l-.3.4c-.1.2-.2.3-.3.4-.3.4-.7.8-1 1.1-.3.4-.7.7-1.1 1.2-.1.2-.3.4-.5.5l-.6.5-.2.2-.2.2c-.1.1-.2.3-.2.4 0 .1.1.2.3.2v.1l-.3.2-.3.2c-.3.1-.5.4-.6.7-.1.2-.2.5-.3.7l-.6.6c-.3.1-.4.4-.2.7l-.1.1-.1.1c-.4.2-.8.5-1.2.8l-1.2.8c-.1.1-.3.2-.4.3l-.4.3c-.1.1-.1.1-.1.2v.2c0 .1.1.1.1.1.1 0 .1 0 .2-.1.2-.1.4-.2.5-.4.2-.2.3-.3.5-.4.1-.1.2-.1.3-.2.1 0 .2-.1.2-.1.1 0 .3 0 .4-.1l.4-.4 1-.9c.3-.3.7-.6 1-.9.2-.2.4-.5.7-.6.3-.2.5-.4.6-.6l.3-.3.3-.2.7-.7c.2-.2.5-.5.7-.8.1-.1.2-.1.3-.1.1 0 .3-.1.4-.2.1-.1.3-.2.4-.4 0-.1.1-.2.1-.2l1-1.1 1-1.1.9-.9.9-.9c.4-.3.4-.6.2-.8l-.5.5c-.2.1-.4.3-.5.4-.1 0-.1.1-.1.1-.2.4-.4.8-.8 1-.4.2-.7.5-.9.9 0 0-.1 0-.1.1 0 0-.1.1-.1.2-.1.2-.2.4-.4.5-.2.1-.3.2-.5.3l-.1-.1c.1-.1.2-.2.3-.4.1-.1.2-.3.3-.4.3-.4.6-.7.9-1.1l.9-1.1c.1 0 .1-.1.2-.2.6-.5 1.1-1 1.5-1.6l1.5-1.8.7-.7c.2-.2.4-.5.6-.8.1-.2.3-.4.4-.5l.4-.4c.1-.2.3-.3.4-.5l.4-.5c.3-.5.6-1 .8-1.5.2-.5.4-1 .5-1.6-1.3 1.8-2.7 3.5-4.1 5.2s-2.8 3.4-4.3 5l-.1-.1c0-.1.1-.2.2-.3l.9-1.1c.3-.3.6-.7.9-1 .2-.2.4-.4.5-.7.2-.2.4-.5.6-.7.6-.6 1.1-1.2 1.6-1.9s1-1.3 1.6-2c.3-.5.7-.9 1-1.4.3-.5.7-.9 1-1.4.3-.4.6-.9.9-1.3.3-.4.5-.8.6-1.3.2-.4.1-.6-.3-.4l-1 .5c-.3.2-.7.4-1 .6l-.9.6-.9.6-.8.4c-.3.1-.5.3-.8.5-.4.2-.8.5-1.1.7l-1.1.8c-.1.1-.1.1-.2.1s-.1 0-.2.1l-.8.3c-.3.1-.5.2-.7.4-.2.2-.5.3-.7.3-.2 0-.4-.1-.5-.4-.2-.6-.2-1.3.1-1.9.1-.2.1-.3 0-.3s-.1-.3 0-.6.2-.5.3-.7c.1-.2.2-.5.4-.7l.1-.2c0-.1.1-.1.1-.1.3-.1.7-.4.9-.6.3-.3.6-.5.9-.7.5-.3.9-.6 1.4-.9.4-.3.9-.6 1.3-.8.5-.3.9-.5 1.4-.7.5-.2.9-.4 1.4-.7.2-.1.4-.2.7-.4.2-.1.4-.2.7-.3.5-.1.9-.2 1.3-.5s.8-.5 1.3-.7l1.4-.5 1.4-.6c.1-.1.3-.2.3-.3.1-.1.2-.3.3-.4l.2.1.2.1c.1-.1.1-.2.1-.3 0-.1.1-.2.1-.3v-.3-.2h.2v.6c0 .4.1.5.4.3l.6-.2.6-.2 1.2-.3c.4-.1.8-.2 1.2-.2.4 0 .8 0 1.2.2.3.1.7.3.9.6.2.3.5.6.9.8.2.1.3.3.3.6-.1 0 0 .2.1.3zm-24 43.8v.4c0 .1 0 .2.1.3.2.1.3.2.3.4v.5s0 .1.1.1l.1.1c.1-.1.2-.2.3-.4v-.7-.6c.1-.2.2-.4.2-.5h-.5l.2-.2c.1 0 .1-.1.2-.2-.1-.2-.2-.2-.3-.1-.1.1-.2.2-.4.1 0 .1 0 .3-.1.4-.1.2-.2.3-.2.4zm.4 2.6l-.2.2-.1.1c0 .1.1.2.1.2 0 .1.1.1.1.2l.1-.2.1-.2-.1-.3zm.2 2.1c.1-.1.2-.1.2-.1v-.4c-.1 0-.1-.1-.1-.2s-.1-.2-.1-.2v-.1-.1c-.1 0-.1 0-.1.1v.2c.1.3.1.5.2.7-.2 0-.2.1-.1.1zm.4-7.7l-.3.3-.2.3v.1c.1-.1.2-.1.3-.1.1 0 .2-.1.3-.1.1-.1.1-.2.2-.4-.2 0-.2 0-.3-.1.1 0 0 0 0 0zm.1 1.2c-.1-.1-.1-.2-.3-.3l-.2.2c.1.1.1.2.2.3.2 0 .2-.1.3-.2zm.1-2.5h-.2l-.3-.1v.4c.1 0 .2 0 .3-.1.1 0 .2-.1.3-.1-.1 0-.1 0-.1-.1zm-.4 9.8c-.1.2-.1.5 0 .8.1.3.3.5.5.4-.1-.2-.2-.4-.2-.6-.1-.1-.2-.3-.3-.6zm.7-10.5c.1-.2.2-.5.2-.8-.1.1-.2.1-.3.2-.1 0-.2.1-.3.2l-.2.2c-.1.1-.1.1 0 .2l.1.1.1.1h.1l.3-.2zm4.7-11.2v-.4l-.1-.1h-.1l-.1.2-.1.2c0 .1-.1.2-.2.3-.1.1-.1.2-.2.3 0 .1-.1.2-.1.2-.1.3-.1.5-.2.8l-.2.7c-.1.3-.2.7-.3 1l-.3.9c0 .3-.1.5-.2.7-.1.2-.2.5-.2.8-.2.7-.4 1.4-.5 2.1-.2.7-.4 1.4-.5 2.1l-.1.2v.2c0 .1-.1.2-.1.3v.3c0 .3-.1.5-.3.8-.1.1-.1.3 0 .4.1.1.2.1.3 0 .1 0 .1-.1.1-.1 0-.1 0-.1.1-.2.1-.4.3-.9.4-1.2l.3-1.2c.1-.2.1-.3.1-.5s.1-.4.1-.6.1-.7.2-1c.1-.3.2-.7.3-1 .1-.4.2-.8.4-1.2.1-.2.2-.4.2-.6 0-.2 0-.4-.1-.5l.2-.4c.1-.1.1-.3.2-.4.1-.2.1-.3.2-.5 0-.2.1-.3.1-.5.2-.5.4-.9.5-1.4v-.2c0-.1.1-.2.1-.2.1-.1.1-.2.1-.3zm-2.6 1.4c-.1.1-.1.1-.1.2s-.1.2-.1.2c0 .1 0 .1.1.1l.3-.4s0-.1-.1-.1h-.1zm3.4-25c.1-.1.1-.1.1-.2s.1-.1.1-.2c-.1 0-.1-.1-.1-.1h-.1c-.1 0-.1.1-.1.2s-.1.2-.1.3h.2zm4.7-2.3l.1-.1.2-.2h-.4l-.4.2-.4.2c-.3.1-.5.2-.8.3-.3.1-.6.2-.8.4-.1.1-.2.1-.4.2-.1 0-.2.1-.4.1-.1.1-.2.2-.3.2l-.3.2v.2h.3c.1 0 .2 0 .2-.1l.8-.5c.3-.2.5-.3.8-.4l.9-.4.9-.3zm.7-.6c.3.4.6.3.9-.2l-.9.2z"/><path class="st0" d="M71.5 114c.7.1.8.6.2 1.4-.2.2-.3.3-.6.4l-.7.3c-.5.3-1 .5-1.5.8l-1.5.7c-.3.1-.6.3-.8.5-.2.2-.5.2-.8.1-.1 0-.2 0-.3.1-.7.4-1.5.9-2.2 1.3s-1.4.9-2.1 1.3c-.1.1-.3.2-.4.2l-.4.2-2.2 1c-.7.3-1.4.7-2.2 1-.2.1-.3.2-.5.4-.5.7-1.2 1.1-2 1.3-.2 0-.3.1-.5.2l-.5.4c-.3.2-.5.4-.7.5-.2.2-.5.4-.7.5-.3.2-.7.4-1 .5-.3.1-.7.3-1 .4-.1 0-.1.1-.1.1s-.1 0-.1.1l-.7.7-.2.2-.2.1c-.1.1-.4.3-.8.6l-.5.5-.3.3-.3.3c-.2.2-.4.3-.6.4-.5.3-.9.6-1.4 1-.4.4-.9.8-1.4 1.1-.3.2-.6.5-.8.8-.2.3-.3.6-.5 1-.1.3-.2.7-.3 1l-.4 1.1-.3.9-.3.9c-.1.2-.2.5-.2.8s-.2.6-.3.9l-.3-.4c-.1-.1-.1-.2-.2-.4h-.2v1c0 .3-.1.6-.2.9-.1 0-.2-.2-.3-.3 0-.1-.1-.3-.1-.4l-.3-1.5-.2-1.6v-1.1c0-.4.1-.8.1-1.1.1-.1 0-.2-.1-.2-.5-.2-.8-.5-.8-.9-.1-.3-.1-.8-.3-1.3-.1-.4-.1-.9.1-1.3.1-.5.3-1 .4-1.5.1-.2.2-.3.4-.4l.8-.4c.3-.1.6-.3.8-.5.3-.1.4-.4.5-.7.2-.8.4-1.6.7-2.3.2-.8.4-1.5.7-2.3.2-.8.5-1.6.7-2.4l.6-2.4c.1-.2-.1-.5-.3-.6-.2-.1-.4-.3-.5-.5-.1-.3-.2-.4-.3-.5s-.1-.2-.2-.5c0-.2 0-.3.1-.5s.1-.4.2-.6c.1-.4.2-.7.2-1.1 0-.3.1-.5.3-.7.2-.3.4-.5.6-.7l1.1-.8 1.1-.8c.2-.2.3-.4.4-.6.1-.3.2-.7.3-1.1.1-.4.2-.7.3-1.1.2-.7.4-1.4.5-2.2.1-.7.3-1.5.5-2.2.1-.4.3-.9.4-1.4s.2-.9.4-1.4c.1-.2.1-.5.1-.7s.1-.5.1-.8c-.5.3-1 .7-1.6 1.1-.6.4-1.1.7-1.5 1-.2.2-.4.2-.7.2-.2-.1-.4-.2-.6-.4-.1-.1-.2-.2-.3-.4-.1-.1-.1-.2-.1-.4 0-.1 0-.3-.1-.4 0-.1 0-.3-.1-.6v-.5c0-.2.1-.3.2-.5 0-.1.1-.2.2-.4.1-.1.1-.2.1-.3 0-.6.2-1.2.7-1.6l1.4-.9c.5-.4 1-.8 1.6-1.2l1.7-1.2c1-.7 2-1.3 3-2l3-1.9.7-.5c.1-.1.2-.1.3-.2l.4-.2.7-.4c.7-.4 1.5-.8 2.2-1.2s1.5-.7 2.2-1.1c.9-.4 1.8-.7 2.7-1 1.8-.6 3.6-1 5.5-1.2.9-.1 1.8 0 2.6.4.7.3 1.3.8 1.6 1.6 0 .1.1.2.2.3l.1.2.1.1c.1.1.1.2.2.3v.4l-.1.5c-.1 0-.3 0-.4.1h-.3l-.6-.3c-.1-.1-.3-.1-.4-.1h-.6l-.9.2v.5l-.2.1c-1.2-.1-2.5.1-3.6.6-.2.1-.3.2-.5.3-.2.1-.3.2-.5.3-.7.3-1.4.6-2.1.8-.7.2-1.4.5-2.1.8-.5.2-1 .4-1.4.7l-1.4.8-1.1.7c-.4.2-.7.4-1.1.7-.1 0-.2.1-.2.2l-.2.2-.2.2-.2.1c-.2.1-.4.2-.5.3-.2.1-.3.3-.5.4-.1.1-.1.2-.2.3-.1.1-.1.3-.1.4-.2.7-.5 1.5-.7 2.5s-.5 1.9-.8 2.9c-.3 1-.6 2-.8 2.9-.3 1-.5 1.9-.6 2.7h.6c.3-.1.5-.3.7-.4l1-.7 1-.7.7-.5c.4-.2.7-.4 1.1-.7.3-.2.7-.4 1.1-.6.7-.3 1.4-.6 2.1-.8l2.1-.7c.3-.1.7-.2 1.1-.2l1-.1h1c.3 0 .7 0 1 .1.3.2.7.4 1 .6.3.3.5.6.5 1v.3c0 .1-.1.3-.1.4l-.6.1-.6.1-1 .4c-.3.1-.7.2-1 .2-.7.1-1.3.5-1.8 1.1-.2.2-.5.4-.7.5-.3.1-.6.2-.8.4-.6.4-1.3.7-1.9 1-.7.3-1.4.8-1.9 1.3-.4.4-.9.7-1.4 1l-1.5.8c-.5.2-.9.5-1.3.8l-1.3 1-.5.4-.7.5-.7.5-.5.4c-.1.1-.1.2-.2.3-.1.4-.3.9-.5 1.3s-.3.9-.5 1.4c-.2.5-.4 1.1-.5 1.7-.1.6-.3 1.1-.5 1.6l-.6 1.4-.6 1.5c-.1.2-.2.5-.3.8-.1.2-.1.5-.3.9 1.8-1.1 3.3-2.1 4.7-3 1.3-.9 2.6-1.6 3.9-2.2 1.3-.7 2.6-1.3 3.9-1.9 1.3-.6 2.9-1.3 4.7-2v.2c-.2.2-.4.3-.6.5l-3.7 1.8c-.4.2-.7.3-1.1.5-.3.1-.7.3-1 .5-.4.2-.7.4-1.1.7l-1 .7v.3l1.3-.6 1.3-.6 1.4-.7 1.4-.7c.4-.2.9-.4 1.3-.6.5-.2.9-.5 1.3-.8h.6l.1-.3v-.2c-.1-.3.1-.7.4-.8h.1l2.2-.8c.7-.3 1.5-.5 2.2-.7s1.5-.4 2.2-.5c.2-.3 1-.3 1.7-.1zm-30.2 13.6c.2-.6.5-1.1.7-1.7.2-.5.3-1 .1-1.6-.1.2-.3.5-.4.8-.1.3-.2.7-.3 1-.1.3-.1.6-.2.9 0 .2.1.4.1.6zm23.1-11.1c.1-.1.1-.2.1-.2-.1 0-.1-.1-.2-.2 0-.1-.1-.1-.2-.1-.2 0-.5.1-.7.2l-.7.2s-.1.1-.1.2-.1.2 0 .3.1.1.3.1c.2 0 .4 0 .5-.1.2 0 .4-.1.5-.2.3 0 .4-.1.5-.2zm2.7-1.1c.1 0 .1-.1.2-.2l.2-.2c-.1 0-.1-.1-.1-.1l-.1-.1c-.1.1-.3.1-.4.2l-.4.2v.3l.6-.1z"/><path class="st0" d="M110.1 79.6v.4c0 .3 0 .5-.2.7-.1.2-.2.3-.4.4-.1.1-.3.1-.4 0-.1-.1-.1-.2-.1-.5.1-.1.1-.3.1-.4v-.4-1.2c0-.4-.2-.6-.5-.6h-.2-.2c-.6-.2-1.2-.3-1.9-.4-.7-.1-1.4-.1-2.1-.1H103c-.2 0-.5.1-.7.2-.1.1-.3.2-.5.2-.4-.1-.8 0-1.1.2-.4.2-.7.3-1.1.5-.5.2-1 .3-1.5.5s-1 .3-1.5.5c-.4.2-.9.3-1.3.5s-.9.4-1.3.5c-.2.1-.4.1-.6.2-.2 0-.4.1-.5.2h-.3c-.2 0-.4.1-.6.2-.2.1-.4.2-.5.2-.1.1-.3.2-.4.3v.1c-.3.2-.5.5-.7.8-.3.5-.5 1-.8 1.6-.2.6-.5 1.1-.7 1.7l-.4 1c-.1.4-.3.8-.5 1.2-.2.4-.3.8-.5 1.2-.1.1-.1.2-.1.2 0 .1-.1.2-.1.2-.4.5-.7 1-.8 1.6-.2.6-.4 1.1-.6 1.7l-.3.6c-.1.2-.1.5-.1.7 0 .1 0 .2-.2.3l-.4.4c-.2.1-.3.3-.4.5 0 .2.1.3.2.4.1.1.1.2.1.4 0 .1-.1.3-.2.3-.3.2-.5.5-.6.8l-.3.9c-.1.2-.1.4-.2.6-.1.2-.2.4-.4.6.1.2.1.4 0 .5l-.4.5v.4c-.1.2-.1.3-.2.5 0 .2-.1.4-.2.6-.1.2-.2.5-.3.7-.1.2-.2.4-.2.7-.1.3-.1.6-.3.9-.1.3-.2.6-.2.9 0 .1 0 .3-.1.4-.1.1-.2.3-.2.4-.1.2-.2.5-.3.7-.1.2-.2.5-.2.7-.1.2-.1.5-.2.8 0 .3-.1.5-.3.7-.3.5-.5 1-.6 1.5-.1.5-.3 1-.5 1.5-.3.7-.5 1.3-.7 2-.2.7-.4 1.3-.7 2-.2.5-.3 1.1-.4 1.6-.1.5-.2 1.1-.3 1.7v.3c-.3.5-.6 1.1-.7 1.8l-.3 1.8c0 .1-.1.2-.1.3 0-.1-.1-.1-.1-.1h-.1l-.1-.1-.1-.1c-.1.1 0 .3.1.5.1.1.2.2.2.4-.2.6-.3 1.2-.4 1.8-.1.1-.1.2-.1.3v.3c0 .1 0 .1-.1.2 0 .1-.1.2-.1.2-.2.2-.3.3-.3.5 0 .1 0 .3.1.4.1.1.1.3.1.4l.1.5v.4c0 .1 0 .3.2.3.1.1.1.1.1.2v.3c-.6.2-1.3.1-1.8-.4l-.6-.6c-.2-.2-.3-.5-.3-.8l-.2-1.5c-.1-.5-.1-1 0-1.5.1-1.1.2-2.3.3-3.4.1-1.1.3-2.3.6-3.5.3-1.1.5-2.3.7-3.4s.5-2.2.8-3.3c.4-1.6.8-3.1 1.3-4.6.4-1.5.9-3.1 1.3-4.6l.7-2c.3-.8.6-1.7.8-2.5l.7-2.6c.3-.8.5-1.5.6-2 .1-.2.1-.4.2-.6 0 0 0-.1 0 0 0-.2.1-.4.2-.6 0 0 .1-.3.2-.7s.3-1 .5-1.5.4-1.1.5-1.5c.1-.3.2-.5.3-.8l-.3.3.3-.1-.2.2c0 .1-.1.1-.2.1-.2.1-.4.2-.6.4-.2.2-.3.3-.5.4l-1.2.9-1.3.9c-.1.1-.3.2-.4.3l-.4.4-1.9 1.6c-.6.5-1.3 1.1-1.9 1.6-.1.1-.2.2-.3.2-.1.1-.2.1-.2.2-.3.4-.6.7-1 1.1s-.7.7-1 1.1c-.1.1-.2.1-.4.2s-.4.2-.6.2l-.6.2c-.2 0-.3.1-.3 0s-.2-.1-.2-.2l-.5-.9c-.2-.3-.3-.6-.5-.9-.2-.4-.3-.8-.4-1-.1-.4 0-.9.2-1.2 0-.1.1-.3.2-.3.3-.2.6-.4.8-.7.2-.3.5-.6.7-.8l1.9-1.6 1.8-1.6 2.1-1.7 2.1-1.7c.4-.3.8-.6 1.3-.9.4-.3.8-.5 1.2-.8l2-1.3c.7-.4 1.3-.8 2-1.2.3-.2.6-.4.9-.7.2-.3.3-.6.3-1 .1-.3.3-.6.6-.8.2-.2.6-.2.8-.1.3.1.7.1 1-.1l.2-.1h.2c.2.1.4.1.6 0l.6-.3 2.4-1.1c.8-.4 1.6-.7 2.4-1.1l1.2-.5c.4-.2.8-.3 1.2-.3.3 0 .6 0 .9-.2.3-.1.6-.2.9-.2l1.2-.3c.4-.1.8-.1 1.2-.1h2.8c.9 0 1.8.1 2.7.4.5.2.9.4 1.4.6.4.2.8.5 1.2.8.1.1.1.2.2.3l.4.2.6.6c.2.3.3.6.3.9 0 .1 0 .2.1.3v.3c0 .2 0 .4.1.7s0 .3 0 .6zM73 125.1v-.1-.4.5zm.1-1.7c.1-.2.2-.4.2-.6 0-.2 0-.4-.1-.6-.2.2-.3.4-.3.6.1.3.1.5.2.6zm.4-1.6l.1-.5.1-.5c.1-.5.2-1 .3-1.6.1-.5.2-1 .3-1.6l.3-1.5.3-1.5c0-.1-.1-.2-.1-.3-.4 1.3-.7 2.5-.9 3.8-.3 1.2-.4 2.4-.5 3.7h.1zm2-5c.2-.5.3-.9.4-1.4.1-.5.2-.9.2-1.4.1-.2.1-.5.1-.7v-.7H76l-.1.3c0 .1-.1.2-.1.3-.1.2-.1.3-.1.5s-.1.4-.1.5c-.1.6-.3 1.2-.5 1.7-.2.6-.3 1.1-.3 1.7 0 .4-.1.9-.3 1.3-.1.4-.2.9-.3 1.3-.1.7-.3 1.4-.4 2.1l-.3 2.1v.1l.1.1.1-.4v-.2c.1-.2.1-.5.1-.8 0-.3.1-.5.2-.8.1-.4.3-.8.3-1.2l.2-1.3c.1-.5.1-1 .2-1.6.3-.4.5-1 .8-1.5zm-.3-4.2c-.3.2-.4.3-.4.5v.6c.1-.2.2-.3.3-.5.1-.2.1-.4.1-.6zm0-.7c-.2.2-.2.4 0 .6l.2-.3c.1 0 0-.1-.2-.3zm.6-2.5l-.3 1.2-.3 1.3c.2-.4.4-.8.5-1.2.1-.4.2-.8.2-1.3h-.1zm0 11.9c.1-.1 0-.3-.4-.4 0 .1.1.3.2.5s.2.4.2.5c.1 0 .1-.1 0-.3s.1-.3 0-.3zm1.5-12.2c.1-.2.1-.4.1-.6 0-.2-.1-.4-.3-.6-.2.7-.3 1.4-.5 2.1-.2.7-.4 1.3-.6 2 0 .1.1.1.1.1l.1.1c.1-.1.1-.2.2-.2l.2-.2.2-.4c.1-.1.1-.3 0-.4-.1-.3 0-.6.1-.9.2-.3.4-.6.4-1zm-1.3-.3h.1v-.4h-.2l.1.4zm7.2-26c.3-.2.6-.4.8-.7.2-.4.3-.8.3-1.2l-.6.3-.5.3-.4.2-.4.3-1.2.8-1.2.8c-.2.1-.4.3-.6.5l-.4.3c-.2.1-.3.2-.5.3l-.4.2c-.1.1-.2.2-.2.4 0 .1 0 .1-.1.2l-.2.2-.4.3c-.2.1-.3.2-.4.4-.1 0-.1.1-.1.2s-.1.2-.1.2h.3c.1 0 .2 0 .2-.1l.3-.3c.1-.1.2-.2.4-.3.4-.2.7-.5 1.1-.7l1.2-.6c.1-.1.2-.1.3-.1.1 0 .2-.1.4-.1v-.3l.3-.3 1.1-.7 1-.5zm-6 31.5c.3.1.4-.1.5-.6l-.3.2-.3.2s0 .1.1.2c-.1-.1-.1 0 0 0zm1-8l.3-.9c.1-.3 0-.7-.2-.9-.2.5-.4 1.1-.6 1.6-.1.5-.3 1-.4 1.6.3-.1.5-.4.6-.7.1-.2.2-.5.3-.7zm0-2c.7-.4.8-.8.5-1.2l-.2.6-.3.6zm1.4-3.1l.2-.4c.1-.1.1-.3.2-.4-.3.1-.4.2-.4.3-.1.1-.1.3 0 .5zM101 75.3l1-.1 1-.1h.4c.3 0 .4-.2.3-.6-.6.1-1.1.1-1.7 0-.6-.1-1.1-.1-1.7 0l-.9.1c-.3 0-.6.1-.9.2-.3.1-.5.2-.8.3l-.8.2-1.5.4c-.5.1-1 .3-1.5.6l-.1.1-.1.1c.1.1.1.2.1.2 0 .1.1.2.1.3.4-.2.8-.3 1.2-.4.4-.1.8-.3 1.2-.4l.3-.1.3-.1c.7-.1 1.5-.2 2.2-.4.4-.1 1.2-.2 1.9-.3zm1.5 1.2v-.2h-.4v.1h.2l.2.1zm.6 0c.2 0 .4 0 .6.1.2 0 .4-.1.6-.2-.4-.3-.9-.2-1.2.1zm2.5 0v-.1l-.3.1v.1l.3-.1zM148.7 71c.1.3.1.7 0 1l-.2.8-.2.8c-.1.2-.1.3-.2.5s-.1.4-.2.6l-.3 1c-.1.4-.2.7-.3 1.1-.2.6-.3 1.2-.5 1.8-.2.6-.3 1.2-.5 1.8-.1.4-.2.7-.3 1.1-.1.4-.2.7-.2 1.1 0 .3-.1.5-.2.7-.1.3-.2.5-.3.8-.2.3-.3.7-.4 1-.1.4-.1.7-.2 1.1l-.4 1.3c-.1.2-.1.4-.2.6-.1.2-.1.4-.2.6 0 .3-.1.7-.2 1-.1.3-.2.6-.4.9v.2c-.3.2-.5.5-.5.9 0 .3-.1.6-.1.9-.1.3-.1.6-.2.9-.1.3-.3.6-.5.8.3.2.3.7.1.9l-.1.1c-.3.3-.4.7-.5 1.2 0 .4-.1.8-.3 1.2-.2.5-.4.9-.6 1.4-.2.5-.4.9-.6 1.4-.1.2-.1.4-.2.5 0 .2-.2.3-.5.3 0 .2 0 .3.1.5v.5c-.2.2-.4.5-.5.8l-.3.9c0 .2-.1.3-.2.5s-.2.3-.2.5c-.1.3-.2.5-.3.8-.1.3-.2.5-.4.8-.1.1-.1.2-.1.3 0 .1-.1.2-.1.3l-.4.5c-.1.2-.2.4-.1.6v.1c0 .1-.1.1-.1.1-.2.1-.3.3-.3.4v.5l-.5.1-.1.2c.2.1.3.2.2.4-.1.2-.2.3-.3.4l-.3.4c-.1.1-.1.3 0 .4v.2c0 .1-.1.1-.1.2-.4.3-.6.7-.8 1.1-.2.4-.5.8-.9 1.1-.2.1-.3.3-.3.5-.1.2-.2.5-.3.7-.1.3-.3.5-.4.8-.1.2-.3.5-.4.8l-1 1.5c-.3.5-.7 1-1 1.6-.1.2-.2.3-.4.4-.2.2-.3.4-.5.6l-.3.6c0 .1-.1.3-.2.3-.3.2-.5.4-.6.7-.1.3-.3.6-.5.8-.2.3-.4.5-.7.8l-.7.8-.2.2-.2.2c-.5.5-.9 1.1-1.3 1.6s-.9 1.1-1.3 1.6c-.5.6-1.1 1.1-1.8 1.6-.6.4-1.3.8-1.9 1.2-.3.2-.6.3-.9.4-.3.1-.6.1-.9 0h-.3l-.4.1h-1.4c-.4 0-.9-.2-1.3-.4h-.4c-.6 0-1.1-.1-1.6-.4-.5-.3-.9-.6-1.3-1-.1-.2-.3-.4-.4-.6l-.3-.6c-.1-.1-.2-.3-.2-.4-.1-.2-.1-.3-.3-.5-.2-.3-.3-.7-.2-1.1.1-.4.2-.8.2-1.2.3.2.5.5.7.8.1.3.2.6.4.9 0 .1.1.2.2.3l.3.3c.1.1.3.2.3.3l.3.4c.1.2.3.4.5.4h.7c.8-.1 1.5-.4 2.1-.8.7-.4 1.3-.9 1.9-1.4l1.3-1.3c.4-.4.9-.8 1.3-1.2.3-.3.6-.7.9-1.1l.9-1.1c1.3-1.8 2.7-3.7 4.1-5.6.6-.9 1.2-1.8 1.7-2.7.5-.9 1-1.9 1.6-2.8l1.5-2.4c.5-.8.9-1.6 1.3-2.4.8-1.6 1.5-3.2 2.2-4.7s1.4-3.2 1.9-4.8c.2-.7.5-1.3.7-2s.5-1.3.8-2c.5-1.3.9-2.7 1.3-4.2l1.1-3.8c.4-1.3.7-2.5 1-3.8.1-.5.3-1.1.3-1.6.1-.5.2-1.1.3-1.6.1-.2.1-.5.1-.7l.4-.9c-.2.1-.3.3-.5.5-.5.7-.9 1.4-1.3 2.1-.4.7-.9 1.4-1.4 2.1-.3.4-.5.8-.8 1.1-.3.4-.6.7-.8 1.1-.3.4-.6.8-.8 1.3-.2.4-.5.8-.8 1.2-.3.5-.6.9-.9 1.4-.3.5-.6.9-.9 1.3-.3.3-.5.6-.7 1-.2.4-.4.7-.6 1.1-.1.1-.1.2-.2.4-.5.6-.9 1.3-1.4 1.9-.4.7-.9 1.3-1.3 2-.3.4-.5.8-.8 1.3-.2.4-.5.8-.7 1.2-.1.1-.2.3-.3.4-.1.1-.2.2-.3.4-.1.2-.2.3-.3.4-.1.1-.2.3-.3.4l-.9 1.7c-.3.6-.6 1.1-1 1.7-.3.4-.5.9-.8 1.3l-.9 1.2-.1.1-.1.1c-.7 1.5-1.7 2.7-2.9 3.8-.2.2-.4.3-.5.5-.2.2-.3.3-.5.4-.4.2-.8.4-1.2.4h-.7c-.3.1-.5.2-.7.4-.1.1-.3.2-.3.1l-.8-.2c-.3-.1-.5-.1-.8-.2-.3-.1-.5-.2-.7-.3-.3-.1-.4-.4-.5-.7 0-.1-.1-.1-.3-.1-.1 0-.3-.1-.4-.2-.1-.2-.2-.4-.3-.7 0-.3.1-.5.3-.8l.9-1.5.9-1.5c.4-.7.8-1.4 1.2-2.2.3-.7.7-1.5 1-2.3.4-1.1.9-2.2 1.3-3.3l1.3-3.3.1-.2c.4-1.4.8-2.7 1.2-4.1.4-1.3.8-2.7 1.2-4.1.4-1.5.8-3 1-4.5.1-.8.3-1.6.4-2.4l.3-2.4c.1-.7.1-1.3 0-2-.1-.6-.2-1.3-.3-1.9-.1-.3-.3-.5-.5-.7-.3-.2-.6-.2-.8 0-.2.2-.4.2-.5.2s-.2-.2-.3-.4c-.2-.4-.3-.7-.5-1.1V69l.5-.3.6-.4c.1.2.1.4.2.6.6-.4 1.4-.5 2-.1.2 0 .3.1.5.1.3 0 .7 0 1 .1.3.1.5.3.7.6.1.1.2.2.3.2.1 0 .3.1.4.2l.3.3c.1.1.1.2.2.3.7.8 1.2 1.8 1.4 2.9v2.4c0 .7 0 1.5-.1 2.3-.1.6-.1 1.2-.3 1.8l-.3 1.8c-.1.7-.3 1.4-.4 2.2s-.3 1.5-.5 2.2c0 .2-.1.3-.2.5-.1.1-.2.3-.2.5-.1.4-.1.8-.2 1.2-.1.4-.2.7-.3 1.1-.1.2-.1.5-.2.7-.1.2-.2.4-.2.7l-.6 1.7c-.2.6-.4 1.2-.7 1.7l-1.5 3.6c-.2.6-.4 1.1-.6 1.7s-.4 1.1-.6 1.7l-.3.6-.3.6c-.2.6-.5 1.1-.7 1.7s-.6 1.1-.9 1.6v.2l.3-.3c.5-.7 1-1.5 1.5-2.2.5-.7 1-1.5 1.5-2.2l1.2-2c.4-.7.8-1.3 1.2-2l1.4-2.2 1.4-2.2 1.2-1.8 1.2-1.8c.1-.2.2-.3.4-.5.1-.1.3-.3.4-.5.1.1.2.2.1.3 0 .1-.1.2-.1.3-.1.1-.1.2-.1.4 0 .1-.1.2-.1.4l.8-.8.8-.8.3-.4c.1-.1.2-.2.2-.4s.1-.4.2-.7c.1-.2.2-.4.4-.6l.7-1c.2-.3.5-.7.7-1 .1-.3.3-.6.6-.9.2-.3.5-.6.7-.8.1-.1.2-.2.2-.4 0-.1.1-.3.2-.4.3-.4.7-.8.9-1.3.3-.5.6-.9 1-1.3.2-.2.3-.4.4-.6.1-.2.2-.4.4-.6l.5-.8c.2-.2.3-.5.5-.7.3-.3.5-.6.7-1l.6-1.1c.1-.2.2-.4.4-.6.2-.2.3-.4.4-.6.4-.4.6-.9.7-1.4-.3.1-.5.3-.6.6-.1.2-.4.4-.6.4l.6-.9c.2-.3.4-.6.6-1l.3-.6.3-.6c.1-.2.2-.5.3-.7.1-.2.3-.4.6-.4l.6-.3.6-.4c-.1.2-.1.3-.1.4l-.1.3c.2.2.3.2.5 0 .1-.2.4-.3.6-.3-.1.2-.1.3-.1.5.2 0 .3.1.4.1.1.1.2.3.2.4 0 .1 0 .1.1.2.3.1.6.4.8.7-.1.4.1.7.2 1.1zm-33.1 34.5c.6-1.1 1.1-2.1 1.6-3.2s.9-2.2 1.3-3.3h-.2c-.1.1-.1.2-.1.3 0 .1-.1.2-.1.3-.4.9-.8 1.7-1.1 2.6-.3.9-.7 1.7-1.2 2.5-.1.1-.1.3-.2.4l-.2.4c.1-.1.2-.1.2 0zm2.6 22.8c.3 0 .5-.1.7-.3.1-.2.2-.4.4-.6-.6.1-.9.4-1.1.9zm1.2-31.9c-.3.3-.5.7-.7 1.1-.1.3-.1.6-.1.9.1-.3.3-.7.4-1 .2-.3.3-.6.4-1zm-.3 4.1c.1.1.1.1.2.1l.4-.5s0-.1-.1-.1l-.5.5zm.5-5c-.1.1-.2.3-.3.5 0 0 .1.1.2.1l.3-.4-.2-.2zm14.4 9.7c.2-.1.4-.2.5-.4.2-.3.3-.7.4-1l-.3.2-.3.2c.1-.3.2-.5.3-.7l.3-.6.3-.7.3-.6c.1-.2.1-.4.1-.6 0-.3.2-.5.4-.6-.1.2-.2.4-.2.6-.1.2-.1.4-.2.6.2-.1.3-.1.4-.2.1-.3.2-.5.3-.8.1-.3.2-.6.4-.9l-.6.3c.1-.3.2-.6.2-.9s.1-.5.2-.8l-.1.1-.1.1c-.2.2-.3.4-.4.7 0 .2-.1.5-.2.7l-.6 1.4c-.2.5-.4.9-.6 1.4l-1.2 2.7-1.3 2.7c-.1.2-.2.5-.4.7-.1.2-.3.5-.4.7-.3.5-.6 1.1-1 1.6s-.7 1-1 1.6l-1.5 2.5c-.5.8-1 1.7-1.5 2.6-.3.5-.7 1.1-1.1 1.6l-1.2 1.6c-.5.7-1.1 1.5-1.6 2.2l-1.5 1.8-1.5 1.8c.2 0 .4 0 .5-.2l.4-.4.4-.6.4-.6c.3-.4.7-.8 1.1-1.2.4-.4.7-.8 1-1.2l1.4-1.9c.5-.6.9-1.3 1.3-1.9.1-.2.3-.5.4-.7.1-.2.3-.4.4-.6.3-.3.5-.7.7-1.2.2-.4.5-.8.8-1.1v-.1c.3-.5.6-1.1.9-1.7.3-.6.6-1.1 1-1.6.1-.2.2-.4.3-.7.1-.2.3-.4.5-.5 0-.3.1-.6.3-.8.2-.2.3-.5.4-.7l1.1-2.2c.6-.3 1-1 1.4-1.7zM120.3 98c-.1.2-.3.3-.4.5v.5c.1-.1.2-.3.3-.6 0-.1 0-.2.1-.4zm0-3.4l-.1.3-.1.2h.2l.1-.2.1-.2-.2-.1zm.8-1.4c-.4.2-.6.4-.4.7h.2c.1-.2.1-.4.2-.7zm1.6-1.7c-.2 0-.4.1-.5.2-.1.1-.1.3-.1.5 0 .1.1.2.2.1.1 0 .3 0 .3-.2 0 0 0-.3.1-.6zm.4-2.1l-.2.3-.2.3c.1 0 .1.1.1.1.1-.2.3-.4.4-.6 0 0-.1 0-.1-.1zm-.3 36.5l.2-.1c.1 0 .1-.1.2-.2l-.1-.1-.1-.1-.1.1-.1.1v.3zm1.6-2c.8-.9 1.5-1.8 2.2-2.7.7-.9 1.3-1.9 1.9-2.9-.1-.1-.2-.1-.4-.1l-.3.3c-.1.2-.3.5-.4.7-.1.3-.3.5-.6.6-.2.6-.6 1.2-1 1.8l-1.3 1.6c-.2.2-.3.4-.4.6h.1s.1.2.1.3l.1-.2zm4.2-6l.3-.6.3-.5c-.2.1-.5.3-.7.5-.1.2 0 .4.1.6zm4.3-7.4l-.1-.2c-.1.1-.3.2-.4.3-.1.1-.2.3-.3.4l-.6 1.2c-.2.4-.4.8-.7 1.2-.1.1-.2.3-.3.4l-.2.5c-.1.3-.3.5-.4.8-.2.3-.4.5-.7.7l-.2.2.5.3c.6-.9 1.2-1.9 1.7-2.8.6-.9 1.1-1.9 1.6-2.9l.1-.1zm-3.2-19.3l.7-.8c.2-.3.4-.5.5-.9-.7.4-1.1 1-1.2 1.8v-.1zm2-4c.7-.9 1.3-1.8 1.9-2.6l1.8-2.6.5-.7c.2-.2.4-.5.5-.8 0 .3 0 .5-.1.8l-.4.7c-.3.4-.5.7-.7 1.1-.2.4-.5.7-.7 1-.6.6-1 1.3-1.5 2-.4.7-.9 1.4-1.5 2.1 0-.4.1-.7.2-1zm1.7 21.8c.2-.1.3-.3.5-.4v-.5c-.1.1-.2.3-.3.4-.3.1-.3.4-.2.5zm.9-1.3c.1-.1.1-.3.1-.4 0-.1.1-.3.1-.4-.2.2-.3.3-.4.5-.1.2 0 .3.2.3zm.5-1.6c.4-.1.5-.3.5-.6 0-.2 0-.4.1-.6-.2.1-.4.3-.4.5-.1.3-.2.5-.2.7zm.6-3.6h-.1c0 .1-.1.1-.1.2l-.1.2h.2c0-.1.1-.2.1-.4zm-.1 1.9c.7-.1 1.1-.6 1.1-1.5-.2.2-.4.5-.6.8-.1.2-.3.5-.5.7zm1-1.9l.9-1-.2-.1h-.2c-.2.1-.3.3-.4.5 0 .2 0 .5-.1.6zm5.2-29.4c.1-.1.1-.2.2-.3l.2-.2c.1.2 0 .4-.1.6l-.4.5c-.2.3-.5.6-.7.9-.2.3-.5.6-.7.9-.4.8-1 1.6-1.6 2.3-.1.2-.3.4-.4.7-.1.2-.2.4-.4.7l-.5.7c-.2.2-.4.4-.7.5l.8-1.1c.3-.4.5-.7.7-1.1.6-.9 1.2-1.7 1.8-2.6l1.8-2.5zm-4.6 25.1l.2-.5c.1-.1.1-.3 0-.4l-.4.4c-.1.2-.1.4-.1.6l.2-.1h.1zm0 0l-.2.6c-.1.2-.1.4-.2.7.2-.2.4-.4.5-.6 0-.2-.1-.3-.2-.5l.1-.2zm.9 1.6c.1-.2.1-.3.1-.5s0-.4-.1-.5c-.2.4-.3.8-.5 1.2l-.5 1.1c.2 0 .4 0 .6-.1.1-.1.2-.3.2-.5v-.3l.2-.4zm0-3c0-.2.1-.4.2-.6-.1.1-.3.2-.5.2-.2.1-.3.1-.5.2l.8.2zm.4-2.4s.1.1.2.1c0-.1.1-.2.2-.3.1-.1.1-.2.2-.4-.2 0-.4.1-.5.2-.2.1-.2.4-.1.6v-.2zm.4 2.7l.1-.5c0-.1.1-.2.1-.4-.1.1-.3.2-.3.3-.2.2-.1.5.1.7v-.1zm.2-1.5c.2-.2.4-.4.6-.7 0-.1 0-.2-.2-.3-.1.2-.2.3-.2.5s-.1.5-.2.7v-.2zm1-17.4l.3-.3c.1-.2.1-.3 0-.5-.1.1-.2.3-.3.4l-.3.4H139.8zm1.3-2c.1-.1.1-.2.1-.2 0-.1.1-.2.1-.2l-.1-.1-.2.2-.2.2.3.1zm.9-3.6z"/><path class="st0" d="M146.1 79c0 .2-.1.4-.2.5-.1.1-.3.2-.4.2-.2 0-.3.1-.4.2.1-.1.1-.2.1-.4 0-.1.2-.2.4-.1.1 0 .1 0 .3-.1l.2-.3zm34.1-12.6c0 .3 0 .7.1 1.1s0 .7 0 1V69.9c0 .1 0 .2-.1.2-.2.2-.3.5-.3.8 0 .3 0 .5-.1.8-.1.3-.1.6-.2.9-.1.3-.1.5-.2.8-.1.2-.2.5-.3.7-.1.2-.2.4-.2.6 0 .1 0 .2-.1.3 0 .1-.1.2-.1.3l-.1.3-.1.3c-.1.3-.3.7-.4 1-.1.3-.2.7-.3 1-.1.1-.1.2-.1.3 0 .1 0 .2-.1.3l-.4 1.1c-.1.3-.2.7-.3 1.1-.1.4-.2.7-.4 1l-.6.9-.3.6c-.1.2-.2.4-.3.7v.1c-.2.4-.3.7-.5 1.1-.2.4-.4.7-.6 1.1-.3.6 0 0 0 0 .1.3 0 .5-.2.7-.2.2-.3.5-.4.8-.1.2-.1.4-.2.5-.1.2-.2.4-.4.6-.3.6-.7 1.2-1.1 1.7l-.6.9-.6.9c-.2.3-.5.6-.6.9-.2.3-.4.7-.7.9-.1.1-.2.3-.3.4-.1.2-.1.3-.2.5s-.2.4-.4.6l-.4.6c-.2.3-.3.5-.5.7l-.5.7-.5.7c-.2.2-.3.4-.5.6-.2.3 0 0 0 .1-.2.5-.4.9-.8 1.3-.3.4-.7.7-1 1.1s-.7.7-1 1.1c-.3.4-.7.7-1.1 1l-.6.6-.7.6-.6.4-.6.4c-.1.1-.3.2-.4.2-.2.1-.3.1-.4.2l-.2.1c-.1.1-.2.1-.2.2l-.2.2-.2.2c0 .1.1.2.1.3h-.2l-1.3.4c-.4.1-.8.2-1.3.3-.4.1-.7.1-1 .1l-1 .1h-.2l-.2-.1-.4-.1h-.4c-.4 0-.8 0-1.1-.2l-.8-.3-.3-.1-.5-.2-.4-.2-.5-.3-.5-.3c-.5-.3-.9-.8-1.1-1.4-.1-.2-.1-.4-.3-.6l-.3-.5c0-.1 0-.3-.1-.4v-.4c0-.1 0-.3-.1-.4 0-.1-.1-.2-.3-.2s-.1 0-.1-.2v-1.7c0-.6 0-1.2.1-1.7 0-.3.1-.6.2-.9.1-.3.1-.5.2-.8l.3-1.5c.2-.5.3-.9.3-1.4 0-.2.1-.4.1-.5l.2-.6c.2-.5.4-1.1.6-1.6s.4-1.1.6-1.7l.7-1.4c.2-.5.5-1 .7-1.5l.7-1.4c.2-.5.5-.9.7-1.4.3-.6.6-1.1.9-1.6s.6-1.1 1-1.6l.6-.9c.2-.3.4-.7.6-1l.3-.3.3-.3c.1-.1.2-.3.2-.4l.2-.5.3-.6c.1-.2.2-.4.3-.5l.9-1.1.9-.9c.1-.1.3-.2.5-.3l.5-.2c.2-.1.4-.2.7-.3.1-.1.2-.1.3-.2.1-.1.2-.1.3-.1.1 0 .1-.1.2-.1h.2c.1-.1.2-.1.3-.1.1 0 .1.1 0 .4v.2l.2.1.6.5.6.5c.1.1.1.1.1.2-.1.2 0 .5.2.7.2.1.3.3.4.6.1.2.1.4.1.6v.6c0 .3-.2.6-.4.7-.2.1-.4.4-.5.6 0 .1-.1.2-.3.3h-.4c-.2 0-.5.1-.7.2-.2.1-.5.3-.7.5-.2.2-.4.3-.6.5-.3.4-.6.8-1 1.1-.3.4-.6.8-.8 1.3-.2.5-.4.9-.7 1.4-.3.4-.6.9-.9 1.3-.2.2-.3.5-.4.7-.1.3-.3.5-.4.8V86.9c-.3.3-.5.6-.7.9-.1.3-.3.7-.5 1s-.3.6-.4.8c-.2.3-.3.6-.4.9-.3.5-.5 1-.7 1.6-.2.5-.4 1.1-.6 1.6-.5 1.4-.8 2.8-1.1 4.3-.1.4-.2.8-.2 1.2 0 .4-.1.8-.1 1.2 0 .2 0 .4-.1.6 0 .2-.1.4-.1.6v.8c0 .2 0 .5.1.7 0 .2.1.4.1.5.1.1.1.3.2.4.1.1.1.2.2.2l.3.3c.1.1.2.2.4.2.1.1.2.1.3.1.3 0 .7-.1 1-.2.3-.2.6-.3.9-.5l.4-.2.3-.2 1.2-1 1.2-1c.6-.4 1.1-.9 1.6-1.4l1.4-1.6c.3-.3.6-.7.9-1.1l.9-1.2.9-1.2c.3-.4.6-.8.8-1.2.5-.7 1-1.4 1.4-2.1.5-.7 1-1.4 1.4-2.1.6-1 1.1-1.9 1.7-2.8.5-.9 1.1-1.9 1.7-2.8.1-.1.1-.1.1-.2l.2-.3c.1.1.1.3 0 .4l-.3.4-.8 1.4c-.3.5-.5.9-.8 1.4l-.4.6c-.1.2-.2.4-.4.6-.1.2-.3.5-.4.7l-.5.7-.2.4c-.1.1-.1.2-.2.3l-.1.2-.1.2v.2l.2-.1c.3-.2.6-.5.7-.8.2-.3.4-.7.6-1 .2-.3.4-.6.6-.8l.6-.9.3-.2v.4c-.4.5-.7 1-1 1.5l-1 1.4c-.1.1-.2.2-.2.4-.1.1-.1.2-.2.4-.2.3-.3.6-.6.9l-.6.9-.5.8-.6.8-.9 1.1c-.3.4-.6.7-.9 1.1-.1.1-.1.2 0 .3h.2c.1 0 .1 0 .2-.1s.2-.3.3-.5c.1-.2.3-.4.4-.6l.5-.6c.2-.3.4-.5.6-.8.2-.3.3-.5.5-.7.1-.2.3-.4.4-.6.2-.2.4-.4.7-.5.1 0 .2-.1.2-.2.1-.4.3-.7.6-1 .3-.3.5-.6.7-1 .1-.2.2-.3.3-.4.1-.1.2-.3.3-.4h1c0-.1.1-.2.2-.3l.9-1.2.9-1.2.3-.6c.1-.2.2-.5.3-.7l.2-.4.3-.3c.2-.1.3-.3.4-.6.1-.2.1-.4 0-.6-.1-.1 0-.2 0-.3.2-.1.3-.2.4-.4 0-.2.1-.3.1-.5s0-.2.1-.2c.3-.1.5-.3.7-.6.1-.3.3-.5.4-.8v-.2-.1s-.2-.2-.2-.3c0-.1.1-.2.1-.3.2-.3.3-.6.4-1 0-.1 0-.2.1-.3l.2-.3c.1-.2.3-.4.4-.6.1-.2.2-.4.4-.6.1-.1.1-.2.1-.2 0-.2.1-.4.2-.5.1-.1.2-.3.3-.5v-.2-.4c.1-.1.1-.2.2-.3.1-.1.2-.3.2-.4.1-.1.1-.2 0-.3-.1-.1-.2-.2-.2-.3.3-.2.5-.5.7-.8.2-.3.3-.7.2-1 0-.1.1-.1.1-.2l.1-.2c.1-.2.1-.4-.1-.4-.1 0-.2 0-.3-.1.1-.2.2-.3.3-.3.3-.1.4-.2.4-.5v-.1-.1-.2-.2l-.3.1-.2-.1-.2-.1.1-.2.1-.2c.2-.2.4-.5.6-.7l-.5.1.1-.3.1-.3c-.3-.1-.3-.3-.1-.5v-1-1c0-.2-.1-.4-.2-.5-.1 0-.1 0 0-.1.1-.2.2-.4.1-.6-.1-.1-.2-.3-.2-.4 0-.1 0-.1-.1-.1s-.1 0-.2-.1V67.3l-.2 1-.2 1c0 .1 0 .1-.1.2-.1 0-.2.1-.2.2h-.1v-.4l.1-.4c0-.1.1-.3.1-.4l.1-.7V67c0-.5 0-.9-.1-1.4 0-.5-.1-1.1-.3-1.6-.1-.2-.1-.4-.3-.6l-.3-.6-.1-.1-.1-.1c-.2-.7-.9-1.2-1.6-1h-.5c-.3-.1-.6 0-.9.1l-.9.6c-.2.2-.4.3-.7.4l-.7.3c-.4.1-.8.2-1.2.4-.4.1-.7.2-1.1.2h-.1-.1l-1.4.7c-.5.2-.9.5-1.4.7-.5.2-.9.4-1.4.8l-.2.2-.2.2c-.4.2-.8.3-1.2.4l-.3.1-.3.3c-.1.1-.2.2-.4.3l-.4.3-.2.2c-.1.1-.2.1-.2.2-.1.2-.3.3-.5.4-.1 0-.2 0-.3.1-.3.3-.7.6-1 .8-.4.3-.7.5-1 .8l-.4.4c-.1.2-.3.3-.5.3-.3.1-.6.3-.8.5l-.6.6c-.2.1-.4.3-.5.5-.1.2-.3.4-.4.6l-.4.4c-.1.1-.2.3-.4.4l-.4.3c-.1.1-.2.1-.4-.1-.1 0-.2 0-.3.2l-.5.5-.4.5c-.1.1-.1.2-.2.2l-.3.3-.4.5c-.1.1-.3.2-.4.3l-.3.5-.2.3c-.1.2-.1.2-.2.1s-.2-.1-.4 0c-.1.1-.2.2-.2.3-.3.5-.7.9-1.2 1.2-.3 0-.6.2-.8.4-.1.1-.2.3-.3.4-.2.2-.3.4-.5.6l-.3.2c.2-.3.4-.6.5-.9s.3-.6.5-.9h-.1-.1c0 .1-.1.1-.1.2l-.1.1c0 .1-.1.2-.2.2l.3-.2h-.3v-.1-.1l.7-.8c.2-.3.4-.5.5-.8.1-.2.2-.4.4-.6l.6-.4-.1-.1-.1-.2h.5l.3-.5.2-.5.6-.4.2-.2.2-.2.2-.2c0-.2.2-.4.4-.6.2-.2.4-.3.5-.5l.3-.4c.1-.1.2-.3.4-.4s.4-.4.6-.6l.6-.7.9-.9.9-.9c.1-.1.2-.1.3-.2.1 0 .2-.1.3-.2.1-.1.3-.2.4-.3l.4-.4c.1-.1.3-.2.4-.3.1-.1.2-.2.4-.3l.9-.8c.3-.3.6-.5.9-.8l.6-.5.6-.5.2-.1c.1 0 .1-.1.2-.2.1-.2.2-.3.4-.4.2-.1.3-.2.5-.3l.3-.3.3-.3v-.1c-.1 0-.3 0-.4.1-.4.2-.8.5-1.1.8l-1.3.9-1.2.9c-.2.2-.5.3-.7.4-.2.1-.4.3-.6.6l-.1.1c0 .1-.1.1-.1.1-.3.1-.5.3-.7.6-.2.2-.4.5-.6.7-.2.2-.3.4-.4.5-.2.2-.4.3-.6.5-.1.1-.3.1-.4.2-.2 0-.4.1-.5.2.1-.1.1-.2.2-.3l.1-.2.2-.2.3-.3c.2-.1.3-.2.5-.2.2-.1.4-.2.5-.4.1-.1.1-.2.2-.3l.3-.3c-.1-.5.2-.6.7-.6.2-.4.4-.7.7-1 .3-.3.6-.5 1-.6l.2-.1c.1 0 .1-.1.1-.2s.1-.1.2-.2l.2-.1.4-.2c.1 0 .2-.2.2-.4 0-.3.1-.1.2-.2.2-.1.3-.2.5-.3.2-.1.4-.2.5-.4.1-.1.2-.1.4-.2h.5c.2 0 .4-.1.5-.2l-.1-.1c-.1 0-.1-.1-.1-.2l.3-.2c.1-.1.1-.1.2-.1.2 0 .4 0 .5-.2l.4-.4.5-.4c.1-.1.2-.1.3.1l.8-.3c.2-.1.5-.2.7-.4.4-.3.9-.5 1.3-.6.5-.1 1-.2 1.4-.4.2-.1.4-.2.7-.2l.7-.1.7-.2h.2c.6.1 1.2.1 1.8.1.6 0 1.2.1 1.7.2.3 0 .7.2.9.3l1.2.5 1.2.5.2.2.2.2c.1.2.2.2.3.2.2-.1.5 0 .7.1.2.1.3.3.4.5.1.1.1.3.2.4.1.1.2.2.2.4.2.3.3.6.5.9l.4.9c.1.2.2.5.3.7l.2.7c-.2-.1-.2.3-.2.7zm-32.1 8.4c-.3.5-.6.9-1 1.3l-1 1.3-.1-.1.3-.6c.2-.3.4-.6.6-.8.2-.3.4-.5.7-.7.1-.2.3-.3.5-.4zm.9-.9c-.3.1-.4.2-.4.3v.4l-.3-.1-.3-.2c.1-.1.2-.2.2-.3l.3-.3c.1-.1.3-.1.4-.2h.4l-.1.2c-.1.1-.1.2-.2.2zm.6-1c-.1.2-.3.2-.4.1l.2-.3c.1-.1.1-.2.2-.3.1-.2.3-.3.5-.4.2-.1.4 0 .5.2-.1.1-.2.1-.3.2-.1 0-.1.1-.2.1-.1.1-.2.2-.3.2-.1 0-.2.1-.2.2zm1.2-1.6c0-.1 0-.1 0 0v-.2-.1l.3-.1h.5v.1l-.3.2-.5.1zm1.4-1.2l-.3.3c-.2 0-.4 0-.6.1.1-.4.4-.6.8-.8h.1l.1.1-.1.1c.1.1 0 .1 0 .2zm1.7.8c.1 0 .3-.1.3-.3 0-.2.1-.4.1-.6-.2.2-.4.5-.6.7l-.5.6.3-.2c.2-.1.3-.1.4-.2zm1.1-1.3l.6-.4c-.5-.1-.8.1-1.1.7l.1.1c.1-.2.2-.3.4-.4zm2.1-1.7c.3-.2.4-.4.2-.6-.2.1-.3.2-.5.3-.2.1-.3.3-.4.6 0 0-.1.1-.2.1s-.3.1-.3.2-.1.3-.1.4c.1-.1.2-.1.3-.1.1 0 .1 0 .1-.1.1-.2.2-.4.4-.6l.5-.2zm1.9-1.8c.2-.1.3-.3.5-.4.2-.1.3-.2.5-.4-.2 0-.4 0-.6.1-.3.1-.5.3-.7.4-.3.2-.5.4-.7.7-.2.2-.4.5-.6.7.2-.1.4-.2.7-.3.3-.1.5-.2.6-.5l.2-.2.1-.1zm1.9-1.5c.3 0 .5-.1.7-.3.3-.2.5-.4.6-.7-.3.1-.6.2-.9.4-.1.2-.3.4-.4.6zm.5-1.9h.2c.1 0 .1 0 .2-.1.1 0 .1-.1.1-.2s.1-.2.1-.2c-.1 0-.2.1-.3.1l-.2.2-.1.2zm1.1.8l.5-.2.4-.2V63v-.1c-.1.1-.3.2-.4.2l-.5.3v.1zm2.8 29.4c-.1.1-.1.2-.1.2 0 .1 0 .2-.1.3h.2l.4-.5.4-.5v-.1-.2s-.1.1-.2.1-.1 0-.2.1c-.1.2-.2.4-.4.6zm4-5.5s0-.1 0 0l.3-.3.3-.2c.1.2 0 .4-.1.6-.1.2-.3.3-.4.3-.1 0-.2 0-.2-.1s0-.2.1-.3zm.8-1.5l.2-.3c.1-.1.3-.2.4-.1-.1.2-.2.5-.3.7l-.3.6c-.1-.1-.2-.2-.2-.4s.1-.3.2-.5zm1.9-5.2l.9-1.8c.1 0 .1-.1.1-.1-.1-.2-.1-.4.1-.6.1-.2.2-.3.2-.5.1-.2.3-.4.5-.4-.1.1-.1.2-.1.3 0 .1-.1.2-.1.3-.1.2-.2.5-.3.7-.1.2-.2.5-.3.7 0 .2-.1.4-.3.6-.1.2-.3.4-.3.6l-.3.7-.3.6-.4.8c-.1.2-.3.5-.4.7 0 .1-.1.2-.2.3 0 0-.1 0-.1-.1.1-.2.2-.5.3-.7.1-.3.2-.5.4-.8s.2-.4.3-.7l.3-.6zm-1 3.8c.2-.1.3-.3.3-.5s.2-.5.4-.6c-.1.7-.4 1-.7 1.1zm.9-2.1c.1-.1.2-.3.3-.4.1 0 .2.1.3.2-.1.1-.2.1-.3.2l-.2.2-.1-.1v-.1zm1.7-5.8c.1-.4.3-.7.4-1.1.2-.4.3-.7.4-1.1.1-.4.2-.7.3-.7l.3-.3v.4l-.4 1.2-.4 1.2-.2.4-.2.4c-.1.1-.2.1-.3.1v-.2c.1-.1.1-.2.1-.3zm1.3-3.4c.1-.2.1-.3.2-.4l.1-.1.1-.1v.2l-.2.2-.2.2zm.3-1c0-.2 0-.4.1-.6.1-.2.1-.5.3-.7l.1-.2v-.2c-.1-.2 0-.3.1-.3.1-.1.3-.1.4-.1l-.1.2-.1.2c-.2.6-.4 1.2-.8 1.7zM213.4 52.7c.1.2.2.5.1.7-.1.3-.1.5-.2.8-.1.2-.1.5-.2.7-.1.2-.2.5-.2.7l-.1.2-.1.3-.3.7v.3c-.2.3-.4.7-.5 1-.1.4-.2.7-.3 1.1-.2.6-.5 1.2-.7 1.8-.2.6-.5 1.2-.7 1.8-.1.1-.1.3-.2.4v.4c-.2.5-.4 1-.5 1.4-.2.5-.3 1-.5 1.4 0 .1-.1.2-.2.3-.1.1-.2.2-.2.3v.4c0 .1 0 .3-.1.4-.1.2-.1.3-.2.4l-.2.4c.1.2.1.4.1.5 0 .3-.2.5-.4.7 0 .1-.1.1-.1.2v.4l-.1.4c0 .3-.1.5-.3.7-.1.1-.1.2-.1.2.1.2 0 .4-.1.6-.1.2-.3.3-.4.5-.1.1-.1.2-.1.2 0 .1-.1.2-.1.2-.1.1-.1.2-.2.3-.1.1-.1.2-.2.3l.1.1v.2c-.1.3-.2.6-.3.8l-.3.5c-.1.2-.2.4-.1.6 0 .2-.1.3-.2.4-.1.1-.2.3-.3.5 0 .2-.1.5-.2.7s-.2.4-.2.7c0 .2-.1.3-.2.4-.2.2-.3.4-.3.7 0 .3-.2.6-.5.8v.6c-.1.2-.3.4-.4.5-.1.2-.2.4-.3.7-.1.4-.3.7-.6 1-.3.3-.5.7-.6 1.2 0 .1 0 .2-.1.3 0 .1-.1.2-.1.2s.1 0 .2.2l-.5.3c-.1.3-.1.6-.3.8-.1.3-.3.5-.5.8-.2.3-.4.6-.5.8-.2.3-.3.6-.5.8l-.6.9-.9 1.5c-.3.5-.6 1-1 1.5-.4.6-.9 1.2-1.3 1.7s-.9 1.1-1.2 1.7c-.4.5-.7 1-1.2 1.4l-1.3 1.3-.9.9c-.3.3-.6.5-.9.8l-.7.6c-.2.2-.5.3-.8.3-.2 0-.4.1-.6.3-.7.4-1.4.7-2.2.9-.7.1-1.4.1-2.1.1-1.1-.1-2.1-.4-3.1-.9-.1 0-.2-.1-.3-.2l-.3-.3c-.3-.3-.6-.7-1-1-.4-.3-.6-.8-.8-1.2-.1-.1-.1-.3-.1-.4l-.1-.4c-.6-1-1-2.2-.9-3.4 0-.5 0-1 .1-1.4.1-.5.1-1 .1-1.4 0-.6 0-1.1.2-1.7.1-.6.2-1.1.2-1.7 0-.4.2-.7.7-.8-.2-.2-.3-.5-.3-.7 0-.3.1-.6.2-.8.1-.4.2-.7.3-1.1.1-.4.1-.8.3-1.1.1-.5.2-.9.4-1.4.1-.5.3-.9.4-1.3.1-.3.1-.6.2-.9s.1-.6.2-.8l.3-.9c.1-.3.3-.5.6-.8-.1-.2-.2-.5-.2-.7 0-.3.1-.5.3-.7.3-.5.5-1 .5-1.6v-.3l2.1-6c.2-.7.4-1.3.7-2 .2-.7.4-1.3.7-2l.6-1.5 1.2-3.3 1.2-3 .1-.5c.1-.5.2-.9.5-1.4.3-.4.7-.7 1.2-.8.1.2.2.3.4.3s.4-.1.6-.2c.2-.2.5-.2.7-.1.4.3.9.5 1.4.6.5.2 1 .3 1.4.4.4 0 .6.3.7.8 0 .3.1.5.3.8.1.2.2.4.2.6 0 .2-.1.5-.2.7-.1.3-.3.6-.4.9-.1.3-.3.6-.5.9-.1.3-.3.5-.4.8l-.5.8c-.1.3-.3.5-.5.8l-.5.8c0 .2 0 .5-.1.7-.1.2-.2.4-.4.6-.2.2-.3.4-.4.6-.1.2-.2.4-.2.7 0 0 0 .1-.1.1s-.1.1-.1.1c.1.2.1.3 0 .5s-.1.3-.2.4c-.1.1-.2.3-.3.4-.1.1-.2.3-.2.5s-.1.3-.2.4c-.1.1-.2.3-.3.4 0 .1.1.1.1.1.1 0 .2.1.2.1l-.9.7c0 .1.1.2.2.2 0 0 .2 0 .4-.1-.1.2-.1.5-.2.7-.1.2-.1.4-.2.6-.1.3-.3.5-.6.6-.1 0-.2.1-.3.2l-.3.3.4.3c-.2.5-.3.9-.6 1.4-.1.1-.1.2-.2.3-.1.1-.2.2-.2.3l.3.3c-.1.1-.1.2-.1.2-.2.2-.3.4-.4.5-.1.2-.2.5-.2.7 0 .3-.1.6-.2.8l-.3.9c-.1.4-.3.8-.4 1.2s-.3.8-.5 1.2c-.1.1-.1.2-.2.3-.1.1-.2.2-.3.4 0 .2 0 .4.1.6 0 .3-.1.5-.3.7 0 .4-.1.9-.3 1.3-.2.4-.2.9-.2 1.3 0 .2-.1.4-.2.6l-.3.6c0 .1 0 .2-.1.4 0 .1-.1.3-.1.4-.1.2-.1.3-.1.4s-.1.2-.1.4v.4l-.3 1.2-.3 1.2c-.1.2-.1.3-.1.5v.5c0 .3 0 .5-.1.8-.1.3-.1.5-.2.8 0 .1 0 .2-.1.3v1c.1.3.1.6-.1.8-.1.5-.1.9-.1 1.4 0 .2.1.5.1.7 0 .2 0 .3.1.5l.4.3.1 1.9c.7-.3 1.3-.6 1.9-.9.9-.5 1.7-1.1 2.5-1.7.8-.7 1.6-1.5 2.3-2.4l2.9-3.6.7-1 .7-1.1 1.5-2.4c.5-.8.9-1.6 1.4-2.4.3-.6.7-1.2 1-1.8l.9-1.8.9-1.8.9-1.8c.3-.7.6-1.4.9-2.2l.9-2.2.3-.6c.1-.2.1-.3.1-.4s.1-.2.1-.4l1.8-5c.2-.4.3-.9.5-1.4l.4-1.3.7-1.9.7-1.9c.2-.6.4-1.1.5-1.7.2-.6.3-1.1.5-1.7l.6-1.6V52l.1-.5c.1-.5.4-.9.9-1 .8-.3 1.7-.2 2.4.2.3.1.5.4.7.6.2.3.2.7.2 1-.1.2 0 .3.1.4zm-36.1 41.7s.1.1.3.1c.1-.8.1-1.5.2-2.2.1-.7.2-1.4.3-2.2.1-.2.1-.5.1-.7 0-.2.1-.5.1-.7l.6-2.4c.1-.7.3-1.3.4-2 .2-.7.3-1.3.5-2 .1-.6.3-1.1.5-1.7.2-.5.4-1.1.5-1.6l.9-2.8 1.1-3.9 1.7-4.9c.1-.3.3-.6.4-.9l.3-1c.1-.4.3-.8.4-1.2l.4-1.2c.1-.2.1-.3.2-.5s.1-.4.2-.5v-.2c-.1-.1-.1-.2-.1-.3-.2.2-.4.5-.4.7-.1.2-.1.5-.2.7-.2.8-.5 1.5-.8 2.2s-.6 1.5-.8 2.3c-.1.4-.3.8-.4 1.2-.1.4-.2.8-.4 1.1-.2.4-.3.8-.4 1.2-.1.4-.3.8-.6 1.2v.2c0 .2 0 .5-.1.7l-.2.7c-.1.3-.2.5-.3.8s-.2.5-.3.8c-.1.2-.1.4-.2.6-.1.2-.2.4-.1.6 0 .2 0 .4-.1.6-.1.2-.2.4-.2.6l-.1.4v.4c0 .1 0 .3-.1.4l-.8 2.6-.3 1c-.1.3-.2.7-.3 1 0 .3-.2.6-.5.7.2.1.3.2.3.3 0 .2 0 .3-.1.4l-.2.5c-.1.1-.1.3-.1.4 0 .2 0 .4-.1.6v.5c0 .2 0 .4-.1.6-.1.2-.1.4-.2.6 0 .2-.1.5-.1.8s-.1.5-.1.8c0 .2-.1.3-.2.4-.1.1-.1.2-.1.4.1.2.1.3 0 .5 0 .2-.1.3-.1.5s-.1.5-.2.8c-.1.2-.1.5 0 .8 0 .3 0 .7-.1 1.2zm9.1-28.4c.1-.1.1-.2.1-.4 0-.1-.1-.2-.3-.2-.1.1-.1.2-.2.2-.1.1-.2.2-.2.3-.2.4-.3.8-.5 1.2l-.4 1.2c-.1.4-.3.7-.4 1.1-.1.4-.2.7-.4 1.1-.2.6-.4 1.1-.6 1.7-.2.6-.3 1.1-.4 1.7 0 .2-.1.3-.2.4-.2.5-.4.9-.6 1.4l-.5 1.4-.6 2.1-.6 2.1c-.3.7-.5 1.4-.6 2.1-.2.7-.3 1.4-.5 2.1-.2.7-.4 1.5-.6 2.3-.2.8-.3 1.5-.4 2.3-.1.5-.1 1-.2 1.5l-.3 1.5c0 .3 0 .6-.1.9 0 .3 0 .6.1.9l.3-.3c0-.1.1-.2.1-.4 0-.7 0-1.4.1-2.1 0-.2.1-.4.1-.6s.2-.3.5-.3c-.1-.1-.2-.3-.3-.5 0-.2.1-.4.2-.5l.6-1H179.9c.1-.3.1-.6 0-.7l-.5-.5.7-.5h-.4c.1-.2.2-.4.1-.6-.1-.2 0-.3.3-.5l.3.1.1-.3c0-.1.1-.1.1-.2s-.1-.2-.1-.3v-.3c0-.1.1-.2.2-.3l.3-.3c.1-.1.1-.1.1-.2s0-.2.1-.2l-.3-.3c-.1-.1 0-.2.1-.4H181.3l.2-.4c.1-.1.1-.2.1-.4l.6-1.9v-.2c0-.1-.1-.1-.1-.2l-.4.6h-.1l.6-1.9h.1l-.3 1.3c.2 0 .3-.1.4-.2l.1-.3c.1-.3.1-.7.1-1 0-.4.2-.7.5-.9v-.1-.1c.1-.6.3-1.1.4-1.7.1-.6.3-1.1.5-1.6.2-.4.3-.8.5-1.2l.4-1.2c.2-.5.4-1.1.6-1.7s.4-1.1.6-1.7c.1-.2.1-.3.1-.5 0-.1-.1-.1-.2-.1s-.1-.1-.2-.1c.1-1 .3-1.7.6-2.2zM182 88.2v-.4l.1-.5c0-.2.1-.3.1-.5s0-.3-.1-.5l-.4 1.2c-.1.4-.2.7-.3 1.1-.1.4-.2.8-.2 1.2 0 .4-.1.9-.3 1.2-.1.1-.1.2-.1.3v.4c.3-.3.4-.6.5-1 0-.3.1-.6.1-.9.1-.3.2-.6.4-.9.1-.2.2-.5.2-.7zm-.9-4.8zm1.9.9s-.1 0-.1-.1c0 .1-.1.2-.1.3l-.2.3c-.1.1-.1.2-.1.4s0 .3.1.5l.4-1.4zm.1-1.6c.3 0 .4-.1.4-.2s-.1-.3-.1-.4l-.3.6zm.6-.9c0-.2.1-.4.2-.7l.2-.6c-.2.1-.3.2-.4.4-.1.3-.1.6 0 .9zm.7-2.2l-.2-.1-.3.6.3.3.2-.8zm3 17.9c-.6.5-1.1 1-1.6 1.5s-1.1.9-1.7 1.2l.6-.2.6-.2c.2-.1.3-.2.5-.3.2-.2.3-.3.4-.5l.4-.1c.1 0 .2-.1.3-.1.5-.4 1-.7 1.4-1.2.5-.4.9-.9 1.3-1.4l.9-1c.6-.6 1.1-1.3 1.6-2l1.4-2.1c.6-1 1.3-2 1.9-3.1l.4-.6c.1-.2.2-.5.3-.7 0-.1.1-.2.1-.2l.2-.2.8-1.2.3-.6c.2-.3.4-.6.6-1l.5-1.1c.3-.8.6-1.5 1-2.3.4-.7.7-1.5 1.1-2.2.3-.6.5-1.2.8-1.8s.5-1.2.8-2c.3-.7.5-1.4.8-2.1.1-.4.3-.8.4-1.2l.3-1.2c.1-.3.2-.7.3-1 .1-.3.2-.7.4-1-.1 0-.2 0-.3.1l-.1.3c-.2.7-.4 1.3-.7 2-.2.7-.4 1.3-.7 2l-.4 1.1-.4 1.1-.9 2c-.2.6-.4 1.1-.6 1.6s-.4 1-.6 1.6c-.1.3-.3.6-.5.9-.2.3-.4.6-.5 1-.3.7-.6 1.5-1 2.2l-1.2 2.1c-.1.3-.3.5-.4.8-.1.2-.2.4-.4.6-.4.4-.7.9-1 1.5-.2.5-.6 1-1 1.4-.1.1-.1.2-.2.3l-.2.3c-.2.4-.4.8-.7 1.2-.3.3-.6.7-.9 1.1-.3.4-.6.9-1 1.2-.4.4-.7.8-1.1 1.2l-.1.1-.1.1-.6.9-.9.7-.3.2-.3.3zm-2.3-19.9c-.3.2-.4.4-.4.6 0 .2 0 .4-.2.5l.2.1.4-1.2zm.1-.5l-.1-.1-.3.3c.1 0 .1 0 .1.1h.1c.1-.1.2-.2.2-.3zm20.4-10.6c.2-.2.3-.5.3-.8 0-.2 0-.5.1-.7h-.3c-.3.8-.6 1.6-.8 2.3-.3.8-.5 1.5-.7 2.3l-.4 1.1c-.1.4-.2.8-.4 1.1-.1.4-.2.7-.4 1-.1.4-.3.7-.6 1-.1.1-.1.1-.1.2s0 .2-.1.2c-.1.4-.3.8-.4 1.2-.1.4-.3.8-.4 1.1-.1.3-.2.6-.4.8-.1.3-.2.5-.4.8-.3.5-.5 1.1-.7 1.7l-.2.5c-.1.2-.2.3-.2.5l-.6 1.2c-.2.4-.3.8-.6 1.2-.2.4-.5.9-.8 1.3-.3.4-.5.9-.7 1.3l-.1.3-.7 1.1c-.2.4-.5.8-.6 1.2 0 .1-.1.1-.1.1l-.1.1-.3.3c-.1.1-.2.2-.2.3-.2.3-.3.6-.5.9-.1.3-.3.6-.5.9-.4.7-.9 1.3-1.3 1.9-.5.6-.9 1.2-1.4 1.8l-.6.9-1 1.1c-.3.4-.7.7-1 1.1-.3.3-.7.7-1.1 1l-1.1 1c-.2.2-.3.3-.5.4-.2.1-.4.3-.6.4l-.5.2c.1.1.2.1.3.1l.8-.3.8-.3c.2-.1.3-.2.5-.4.1-.2.3-.3.4-.4l.4-.3.8-.6c.3-.2.5-.6.7-.9.1-.2.2-.3.4-.4.4-.2.7-.5.9-.9.2-.4.6-.7.9-1v-.1c0-.2.1-.4.3-.6.1-.1.3-.3.4-.5l.6-.7c.2-.2.3-.5.5-.8.1-.2.3-.5.5-.7.2-.2.3-.4.5-.6.1-.1.1-.2.2-.3l.3-.3c.1-.5.4-1 .8-1.4.2-.2.3-.5.5-.7.1-.3.3-.5.4-.8.1-.2.2-.5.4-.7l.9-1.2c.2-.4.5-.9.8-1.2l-.2-.3c.1-.2.3-.4.4-.5.1-.2.2-.3.2-.5.1-.3.2-.5.4-.7.2-.2.3-.4.5-.6-.2-.3-.2-.5 0-.6.2-.1.4-.3.5-.4V81v-.1c.1-.2.3-.5.4-.7l.3-.6.3-.9c.1-.3.4-.5.6-.7 0-.4.1-.9.3-1.3.2-.5.4-.9.6-1.4l.5-.3h-.4l.3-.6c.1-.2.2-.3.2-.5 0-.3 0-.5.2-.8.2-.2.2-.5.2-.7.1-.1.2-.3.3-.5 0-.2.1-.3.2-.5s.1-.3 0-.5c.2-.2.3-.4.3-.7 0-.3.1-.5.2-.8.1-.3.2-.6.3-.8.1-.3.1-.6.1-.8 0-.5.1-1 .3-1.3zm-16.5 33.4v-.1l-.3.2v.1l.3-.2zm4.1-4.5c-.5.1-1 .4-1.3.9-.1.1-.2.3-.3.4l-.8 1c-.3.3-.5.7-.8 1v.2c.1-.1.2-.1.3-.2l.3-.2.2-.2.3-.2c.2-.2.5-.4.7-.6.2-.2.4-.5.4-.8 0-.1.1-.2.1-.2l.2-.2.7-.9zm.3-.6c.2-.2.4-.3.6-.4.2-.1.4-.4.4-.6l-.4.2c-.2.1-.3.1-.5.2l-.2.3c-.1.1-.1.2.1.3zm1.6-2.7c-.2 0-.4.1-.4.2l-.3.9.7-1.1zm-.6 1.6l.2-.1c.1-.1.2-.2.2-.3-.2 0-.4.2-.4.4zm1-2.5l.4-.4c.2-.2.3-.4.5-.7.2-.3.4-.5.6-.8.2-.3.3-.5.4-.7.1-.2.1-.4.2-.7-.4.5-.8 1.1-1.1 1.6-.4.5-.7 1.1-1 1.7zm.9-.2c-.4.1-.5.2-.4.4l.4-.4zm.9-1.9l.6-.3-.1-.7-.5 1zm2.2-3.7c.2-.1.4-.3.6-.5.1-.2.2-.5.2-.8-.2.1-.4.3-.5.6l-.3.7zm.9-1.6c.2 0 .3-.1.4-.4 0 0 0-.1-.1-.1h-.1c-.2.1-.3.3-.2.5zm.7-1.5c.2-.2.4-.3.6-.6.1-.2.2-.4.2-.6-.2.1-.4.2-.5.5-.1.2-.2.5-.3.7zm1.2-2.1h-.2l-.1.3-.1.2.1.1.3-.6zm.4-.8c.2-.3.3-.6.5-.9.2-.3.3-.6.3-.9-.4.4-.7.9-.9 1.4 0 .1 0 .3.1.4zm1.9-4.6l.1-.1v-.1l-.1.1v.1c0-.1 0-.1 0 0zm1.7-11.6c.2-.1.3-.3.4-.4v-.5l-.4.9zm.7-1.4l-.1-.1-.1.1c0 .1-.1.1-.1.2 0 0 .1 0 .1.1h.1l.1-.3z"/><path class="st0" d="M253 86.9c.3.1.5.4.4.6v.1c-.1.4-.3.8-.4 1.2-.2.4-.4.7-.8 1-.1.1-.3.2-.4.4-.1.1-.2.3-.3.4-.2.2-.4.4-.6.5l-.7.4c-1.7 1-3.6 1.6-5.6 1.7h-2.1c-1.3-.1-2.6-.4-3.9-.8-.7-.2-1.3-.5-1.9-.8l-1.1-.5-1.1-.5c-.7-.4-1.3-.7-1.9-1.1-.6-.4-1.3-.8-1.9-1.2l-1.5-.9-1.4-.9c-.5-.3-.9-.6-1.4-.9l-1.4-1-1.5-1.1-1.5-1.1c-.7-.5-1.3-1-2-1.6l-1.9-1.6c-.3-.2-.6-.5-.9-.8-.3-.3-.5-.6-.8-.9-.1-.1-.3-.3-.5-.4-.2-.1-.4-.2-.7-.2l-.7 1.8c-.2.6-.4 1.2-.5 1.8 0 .2-.1.4-.1.6l-.2.5c-.1.2-.3.5-.5.6-.1.1-.2.2-.2.3-.1.1-.1.2 0 .3l.3-.3.1.1-.4 1.1c-.1.4-.2.7-.3 1.1-.1.5-.2 1.1-.3 1.6-.1.5-.1 1.1-.1 1.6 0 .3 0 .6-.1.9 0 .3-.1.6-.1.9v.6c.1.2.1.4.2.6s.1.4.1.5.1.3.1.5c0 .1.1.2.2.3.1.1.1.2.2.3.1.2.4.3.6.2l.5-.1c.2 0 .3-.1.5-.2.1 0 .3-.1.4-.1.1-.1.3-.1.4-.1.4-.1.5.1.4.5-.1.1-.1.1-.1.2v.3l-.5.3c-.2.1-.3.2-.5.2-.3 0-.6.1-.9.1h-.9l-1.4-.6c-.5-.2-.9-.6-1.1-1-.9-1.1-1.5-2.4-1.7-3.8-.1-.7-.2-1.4-.1-2.1 0-.7.1-1.5.3-2.2l.3-1.2c.1-.5.2-.9.2-1.4.1-.7.3-1.3.5-1.9.2-.6.4-1.3.6-2 .1-.4.3-.8.4-1.2.1-.4.2-.8.4-1.2.1-.2.1-.4-.1-.6-.2-.3-.4-.5-.6-.8-.2-.3-.4-.6-.5-.9-.1-.2-.1-.4-.2-.6-.1-.2-.1-.5-.1-.7v-.6-.7c0-.2.1-.4.1-.6.1.2.3.4.4.6.1.2.1.4.1.6 0 .4.2.8.5 1l.1.1c0 .1.1.1.1.2.1.3.3.5.6.6.3.2.5.1.7-.3.1-.3.3-.7.4-1 .1-.3.2-.7.4-1 .4-.9.8-1.8 1.1-2.6.4-.9.7-1.7 1.1-2.5.3-.7.6-1.5 1-2.2.4-.7.7-1.4 1.1-2.2l1.3-2.4 1.2-2.4c.2-.4.4-.8.7-1.2l.6-1.2c-.1 0-.2 0-.3.1l-.2.2-.8.8-.9.9c-.2.1-.3.3-.4.4l-.4.5c-.4.5-.8.9-1.2 1.4l-.5.5-.5.5c-.1.1-.2.2-.3.2l-.3.2-.8.9c-.3.3-.5.6-.8.8-.5.4-.9 1-1.2 1.5-.3.5-.6 1.1-1 1.5-.3.3-.5.6-.7.9l-.6.9c-.3.5-.1.1-.1.1l-.1.1c-.1.4-.3.8-.6 1.1-.3.3-.5.6-.6 1-.3.4-.5.8-.7 1.3-.1.3-.3.6-.6.8-.2.2-.5.4-.7.6-.5.4-1.2.4-1.6-.1l-.1-.1c-.1-.1-.1-.2-.2-.3l-.2-.2c-.2-.3-.3-.7-.1-1l.4-.8c.1-.3.3-.5.4-.7.5-.8.9-1.6 1.4-2.4.5-.8.9-1.6 1.5-2.4l2.4-3.3c.8-1.1 1.7-2.1 2.7-3.1l1.5-1.6 1.5-1.5c.5-.5 1-1 1.6-1.5l1.6-1.4 2.6-2.1c.9-.7 1.8-1.4 2.7-2 .3-.2.7-.5 1-.7.3-.2.7-.5 1-.7.6-.4 1.1-.7 1.7-1 .6-.3 1.2-.6 1.7-1h.2c-.1.4-.4.7-.8.8-.5.2-1 .4-1.5.7-.5.3-.9.6-1.4.9-.2.2-.5.3-.7.5-.3.2-.5.4-.6.7l-.3.3c-.1.1-.3.1-.4.2-.1 0-.2.1-.3.2-.1.1-.2.1-.3 0s-.1 0-.2.1c-.1 0-.2.1-.2.2-.1.2-.2.4-.4.5l-.5.2-.3.2c-.1.1-.1.1-.1.3 0 .1-.1.3-.2.3-.2 0-.3 0-.5.1-.1.1-.2.2-.3.4-.1.1-.1.1-.1.2s-.1.1-.1.2c-.1.2-.2.1-.3-.1-.2.3-.4.5-.7.7-.3.2-.5.4-.7.7l.4-.2v.4l.3-.2.3-.2.3-.2.2-.1c.1 0 .1-.1.2-.2l.6-.6.7-.5c.5-.3 1-.7 1.5-1.1l.9-.6.9-.6.6-.4c.2-.1.4-.3.6-.4.3-.2.6-.4 1-.5l.6-.3.6-.5c.1 0 .1-.1.2-.2l.2-.2 1.1-.6c.4-.2.7-.4 1.1-.5.2-.1.2-.2.1-.4-.1 0-.2.1-.2.1l-.2.1h-.2c-.1-.1-.2-.1-.2-.2.1-.1.1-.2.2-.2l1.3-.7c.4-.2.9-.4 1.4-.6.3-.1.7-.3 1-.3.3-.1.7-.2 1-.3 1.1-.4 2.2-.4 3.4-.2h.1s.1 0 .1.1c.3.3.6.5 1 .5.4.1.7.2 1.1.3.4.1.7.3 1 .6.1.1.3.2.4.4.1.1.2.3.3.4.1.2.1.3.2.5 0 .1 0 .1.1.2.4.4.7 1 .8 1.5.2.6.3 1.2.3 1.8v1.8c-.1.6-.2 1.2-.4 1.8-.2.4-.3.9-.5 1.3s-.4.8-.5 1.2c-.1.3-.2.5-.4.7-.2.2-.3.5-.4.7-.3.5-.7 1.1-1.1 1.6l-1.2 1.5c-.2.2-.4.4-.5.7-.2.2-.3.5-.5.7-.3.4-.7.8-1 1.2l-1.1 1.2c-.5.6-1.1 1.2-1.6 1.8-.9.9-1.9 1.9-3 2.9-.3.3-.6.6-1 .9-.4.3-.7.6-1.1 1-.2.2-.5.4-.7.6-.3.2-.5.4-.7.6l-2.7 2.3c-.1.1-.3.3-.5.4-.2.1-.3.2-.5.3-.3.2-.5.4-.8.6l-.9.6c-.3.3-.6.5-.9.7-.4.2-.7.4-1 .7.2.3.4.5.7.7l.7.7.7.7c.3.2.5.5.7.7.1.1.2.3.3.4.1.2.2.3.3.4l.3.3c.1.1.2.1.3.2.2 0 .2.1.2.3s-.1.2 0 .1c.5 0 .9.4 1.1.9.1.1.2.1.4.2l.4.2c.1 0 .2.1.2.1.1.3.3.5.6.7.3.1.5.3.8.5l.7.6.7.6.1.1.1.1c.1.1.1.2.2.2.2 0 .5.1.7.2l.6.4.6.3c.2.1.4.2.6.4.1.1.2.1.2.2s.1.2.2.2.2.1.3.2c.1.1.2.2.3.2.1.1.2.1.3.2.1 0 .2.1.3.2.1.1.2.1.3.2.1 0 .2.1.3.2.1.2.3.3.5.4.2.1.4.1.7.2.2 0 .3.1.4.2.1.1.2.2.4.2l.4.4c.2.1.3.2.5.3.3.2.6.3 1 .4.4.1.7.3 1 .4.5.3 1.1.5 1.7.6.6.2 1.2.3 1.7.5.6.2 1.2.3 1.8.3h1.9l1-.1c.3 0 .7 0 1 .1h.3l.4-.1c.4-.1.7-.2 1-.4.3-.2.7-.4 1-.7l.2-.2c.1-.1.1-.2.1-.3.1-.2.2-.4.2-.7.1-.2.2-.5.3-.7-.8-.5-.7-.6-.7-.7zm-42.9 1l.2-.2-.1-.1-.1.1-.1.1.1.1zm.3-1v-.4-.4c-.3.2-.4.3-.3.5.1.1.1.1.1.2 0 .3.1.3.2.1zm-.2-6.4c0 .1-.1.2-.1.3 0 .1 0 .1.1.1l.1-.1v-.1-.1c-.1 0-.1 0-.1-.1zm.2-.7l-.1.1s0 .1-.1.1h.2c.1-.1.1-.2.2-.2h-.1-.1c.1 0 .1 0 0 0zm.8 3.3c.1-.3.1-.6.2-.9.1-.3.1-.6.2-.9l-.3.2c-.1.1-.1.2-.1.3-.1.3-.1.6-.2.8s-.2.6-.2.8-.1.5-.2.7-.1.4-.2.7 0 .3 0 .4v.4c.1-.1.2-.2.2-.3l.2-.3c.1-.3.1-.5.1-.8v-.4c0-.1.1-.3.2-.3.1-.1.1-.1.1-.2v-.2zm-.6-3.9v.2h.1c-.1 0-.1 0-.1-.2 0 .1 0 0 0 0zm.2-1c-.1.1-.1.2-.1.4 0 .1.1.3.1.4.1-.1.1-.2.2-.3l.2-.2c-.2-.2-.3-.3-.2-.5.1-.2.2-.3.2-.5-.2 0-.3.1-.4.3v.2c.1.1.1.2 0 .2zm.5-1.4c0 .1 0 .1 0 0 .1.1.1 0 .2 0s.2-.1.3-.2l-.3-.1c-.1.1-.1.3-.2.3zm.5 4c.2-.4.3-.9.3-1.4-.3-.1-.4 0-.4.2s-.1.4-.1.6-.1.4-.1.6v.2c0 .1 0 .1.1.1h.2c-.1-.1 0-.2 0-.3zm.1-5.2c-.2.1-.4.2-.4.3 0 .1 0 .2.1.3.2-.1.3-.2.3-.3v-.3zm.1 2.8c-.1.3-.1.5 0 .6.1 0 .2 0 .5-.2 0-.1-.1-.2-.1-.2-.2-.1-.3-.2-.4-.2zm.7-.4c.1-.3.2-.5.3-.8s.2-.6.3-.8c-.2 0-.3.1-.5.2-.1.1-.2.3-.2.5v.2c0 .1-.1.1-.1.2-.1.1-.2.3-.3.4v.4c.3 0 .5-.1.5-.3zm2-8.2c.1 0 .2-.1.3-.4l-.1.1s-.1 0-.1.1h-.2v-.4c0-.1.1-.2.1-.3.1-.1.2-.1.3-.2.1 0 .3-.1.4-.2-.1-.2-.2-.4-.1-.6 0-.2.1-.3.1-.5.1-.1.1-.1.1-.2s.1-.1.1-.2c.1-.2.2-.5.2-.8.1-.2.2-.5.3-.6.2-.3.4-.6.5-.9l.3-.9v-.2h-.1c-.1.2-.2.3-.3.5-.1.1-.2.3-.2.5-.2.7-.5 1.3-.9 1.9l-.1.2-.4 1.1-.4 1.1-.3.6c-.1.2-.2.4-.2.6-.1.2-.2.4-.3.7-.1.2-.2.4-.3.7-.1.1-.1.1-.1.2v.3l.4-.4c.1-.1.2-.2.4-.3 0-.1-.1-.3-.1-.4 0-.1.1-.2.1-.3.1-.1.2-.2.2-.3 0-.4.2-.5.4-.5zm.1-14.1c.2 0 .5-.1.6-.3.1-.2.3-.4.5-.6h-.2l-.5.5-.4.4zm2.2 11.9c.2-.4.4-.7.5-1.2.1-.4.2-.8.4-1.2-.1 0-.2.1-.3.2-.1.1-.1.2-.1.3 0 .1-.1.2-.2.3-.1.1-.2.1-.3.2.1.1.1.2.1.3v.2c-.2.1-.3.2-.4.4-.1.1-.1.3-.2.4l-.3.9c-.1.3-.2.6-.4.8l-.3.6-.3.6c.1 0 .1 0 .1.1.1 0 .1-.1.2-.1s.1-.1.2-.1c.2-.3.3-.5.5-.8.2-.2.3-.5.3-.8.1-.2.1-.4.1-.5.1-.4.2-.5.4-.6zm-.5-13.4c.2-.1.3-.3.5-.5-.1 0-.2 0-.4.1 0 .2-.1.3-.1.4zm.9 8.6c-.1.2-.3.3-.5.5.3 0 .5-.2.5-.5zm.4 7.8c-.1.1-.1.2-.2.3.2 0 .4-.1.6-.2l1-.7 1.1-.7c.5-.4 1-.7 1.4-1l1.4-1.1 2.2-1.9c.8-.6 1.5-1.3 2.2-1.9.5-.3.9-.7 1.3-1.1.4-.4.8-.8 1.2-1.1l.8-.7c.3-.2.5-.5.8-.8l1.2-1.2c.5-.4.9-.8 1.3-1.3.3-.4.7-.8 1.1-1.2l1.2-1.2c.7-.9 1.4-1.9 2.1-2.9.7-1 1.2-2 1.7-3.1l.6-1.5c.2-.5.3-1 .3-1.5v-1c0-.3 0-.7-.1-1 0-.4-.3-.7-.7-.8h-1.4c-.4 0-.9.1-1.3.2h-.8l-1 .4-1 .4-1.1.5c-.4.2-.7.4-1.1.5l-1.2.6c-.4.3-.7.5-1.1.8l-.8.5c-.3.2-.5.3-.8.5-.2.1-.4.2-.7.4-.2.1-.4.3-.6.5-.2.2-.5.3-.7.5-.2.1-.4.3-.6.5l-1.1.8c-.3.3-.7.6-1 .9-.1.1-.3.2-.5.3-.2.1-.3.3-.3.5h.7c.1 0 .2 0 .3.1.1.2.3.3.5.4.2.1.4.2.5.3l.3.3c.1.1.2.2.2.4.1.2.1.4.1.6 0 .2-.1.4-.2.6-.1.1-.1.2 0 .3.1.4-.1.9-.4 1.2-.2.3-.4.6-.5.9-.1.3-.3.6-.5.9-.2.3-.4.5-.5.8-.1.3-.4.6-.7.8-.2.2-.4.4-.6.7-.1.3-.2.6-.1.8 0 .2-.1.5-.3.6 0 .1-.1.1-.2.2-.1 0-.1.1-.2.2-.2.1-.3.3-.2.5V62.7c-.1.1-.2.1-.3.1-.1 0-.1 0-.2.1v.4c-.1.2-.3.3-.4.4.1.1.1.1.1.2s.1.1.1.2l-.7.6c-.2.2-.4.5-.4.8 0 .1.1.2.2.2l-.4.4c-.1.1-.3.3-.5.6l.3.1h.2c-.1.2-.2.4-.3.4-.2 0-.3.2-.4.4V67.9c-.2.2-.4.5-.5.8-.1.3-.2.6-.4.9-.1.1-.1.2-.1.3.3.4.2.6.1.7zm.5-6.7c-.1.2-.2.5-.3.7l.4-.3c.1-.1.2-.3.1-.4h-.2zm-.3 7.6c.1.2.1.2.2.2s.2 0 .3-.1c.6-.4 1.1-.8 1.5-1.1l.8-.6c.3-.2.5-.4.7-.6.2-.2.5-.3.7-.5.2-.2.5-.3.7-.5l.4-.4c.2-.1.3-.3.4-.5-.1 0-.2-.1-.2-.1-.1 0-.1 0-.2.1l-.8.8c-.3.2-.5.4-.9.6-.1 0-.1.1-.1.1 0 .1-.1.1-.1.2l-.2.2c-.1.1-.2.1-.2.2-.1.1-.2.2-.4.2s-.2.1-.4.2c-.3.3-.6.6-1 .8-.4.3-.8.6-1.2.8zm3.1.4l-.3.3c-.1.1-.1.2 0 .4.2-.1.3-.2.5-.3.1-.1.3-.1.6.2v-.3-.2l.8-.4.8-.4.2-.2.3-.3.3-.3 1.2-.9c.4-.3.8-.6 1.1-1 .1-.2.3-.3.5-.4l.5-.4c.1-.2.3-.3.5-.5l.6-.5 1.7-1.4 1.7-1.4.4-.5.4-.5.7-.8.8-.8c.1-.1.1-.3 0-.5-.1.1-.3.2-.5.2-.2.1-.3.3-.3.5 0 .1-.1.2-.2.2-.3 0-.5.2-.6.4-.1.2-.3.4-.4.5-.1.1-.3.2-.4.3-.1 0-.3 0-.6-.2l.3-.1.2-.1c.2-.1.3-.2.5-.3.2-.1.3-.2.3-.4.1-.2.3-.5.5-.6l.6-.6.3-.3.3-.3.3-.3c.1-.1.1-.2.2-.3l.6-.5c.2-.2.3-.4.4-.7l.1-.2c.1-.1.2-.1.3-.2l.3-.3.3-.3c.1-.1.2-.2.4-.2l.1-.2.2-.5c.1-.2.2-.3.3-.4.1-.1.1-.3.2-.4.1-.2.2-.3.4-.4V55v-.1c.1-.1.1-.2.2-.3.1-.1.1-.2.2-.3.1-.1.1-.2.2-.3.1-.1.1-.2.2-.3.1-.6.5-1.1 1-1.4V52c-.1.1-.2.1-.3.2-.1.1-.2.1-.2.2-.1.2-.3.3-.5.4-.2.1-.3.2-.5.4s-.3.4-.5.5c-.2.2-.4.3-.5.5l-.3.5c-.1.2-.2.3-.3.4l-1 1.3c-.3.4-.7.9-1.1 1.3-.6.6-1.1 1.2-1.7 1.8l-1.7 1.7-1.1 1-1 1c-.3.3-.6.5-.9.8l-.9.8c-.3.2-.6.5-.8.7-.2.2-.5.5-.8.7l-.8.6c-.3.2-.5.4-.8.7-.8.8-1.7 1.6-2.6 2.2-.5.4-1 .7-1.5 1-.5.3-1 .6-1.5 1-.1.1-.1.1-.1.2l.6.6.6.6.4-.3.4-.3c0-.1 0-.2-.1-.3V72c0-.1.1-.1.2-.2.1 0 .2-.1.2-.2.2-.1.2-.3.2-.5h.9l-.1.2c0 .1-.1.1-.1.1-.1.1-.2.1-.3.1-.4.3-.6.3-.7.4zm-2.1-20v-.2h-.4v.1h.2l.2.1zm.3 10.2l-.4.4c-.1.1-.2.3-.2.5.2 0 .3-.1.4-.3.1-.1.1-.2.2-.4v-.1c.1 0 .1-.1 0-.1zm2.6 8.5l-.4.4-.4.4-.4.3-.4.3c.4-.3.8-.7 1.2-1 .4-.3.8-.7 1.2-1 0 .1-.1.2-.1.3-.4 0-.5.2-.7.3zm.8-.1c0 .2 0 .3-.1.4-.1.1-.3.1-.4.1l.3-.3.2-.2zm1.3-.9c-.1 0-.3 0-.4-.1-.1 0-.1-.1-.1-.2v-.2c.1-.1.2-.1.2-.1s.1.1.2.3c.2 0 .3 0 .4-.2l.4-.4c.1-.1.2-.3.3-.4.1-.1.3-.2.4-.4v.3c-.3.6-.8 1-1.4 1.4zm.1 11.7l-.2-.1-.2.1c0 .1.1.1.2.1l.2-.1zm.8-14.7l-.3-.1h-.2l-.1.1c-.1 0-.1.1-.1.2v.2c.1.1.2.1.3 0l.2-.2.2-.2zm1-.8c-.3 0-.6.1-.8.2-.1.1-.1.2 0 .4.3-.1.6-.3.8-.6zm1 17.8c0-.1 0-.2-.1-.3v-.2c-.2-.1-.5-.2-.7-.3l-.7-.3-.1.1c0 .1.1.2.1.3.1 0 .3 0 .4.1.1.1.2.1.2.2.1.1.1.2.2.3.1.1.1.2.2.3l.5-.2zm-.7-15.7H225.9c.2-.2.3-.4.4-.5l.4-.5.1-.1.1-.1c.5-.2.9-.5 1.4-.8 0 .1-.1.2-.2.3l-.2.2c-.1.1-.2.2-.3.2-.1.1-.2.1-.2.2-.1.3-.3.5-.5.6-.3.1-.5.3-.7.5zm3.6-5.5c.1-.1.2-.3.2-.4l-2 1.7c-.7.6-1.3 1.1-2 1.8 0 .2.1.2.3 0l.8-.6c.3-.2.5-.4.8-.7.3-.3.7-.6 1-.9l.9-.9zm1.7 25.4c.1-.2.3-.3.3-.3.1 0 .2 0 .3.1.1.1.2.1.3.1l.3-.3-.2-.1c-.2-.1-.4-.1-.4-.2s.1-.3.1-.4l-.1-.1-.2.2c-.1 0-.2.1-.3.2-.1-.1-.3-.2-.4-.4-.1-.1-.3-.2-.4-.3-.3-.2-.6-.3-.9-.5-.3-.2-.5-.4-.8-.7-.1 0-.1-.1-.1-.1-.2 0-.4 0-.5-.2-.1-.1-.1-.3-.1-.4 0-.3-.2-.4-.5-.4-.2.1-.4 0-.6-.2l-.2-.2c-.1-.1-.2-.1-.3 0 .1.2.3.4.6.5.2.1.4.3.3.7h.4V85.1c.2.1.5.1.7.1.1.2.2.5.2.7s.1.4.2.6c.5-.5 1-.4 1.4.1l-.3.5c.1.1.3.2.5.2.6.1.7.2.7.5zm-4.1-3c.1-.1.1-.1 0 0 0-.1 0-.2-.1-.3l-.1.1c.1 0 .1 0 .2.2 0-.1 0 0 0 0zm.2.6h-.2l-.1.4h.2l.1-.4zm.4.9l.1-.1v-.1-.1l-.2.1c.1.1.1.2.1.2zm.7-41.2l-.5.2c0 .1 0 .1.1.2 0-.1.1-.1.2-.2.1 0 .2-.1.2-.2 0 .1 0 .1 0 0zm-.2 19.8l-.2.1v-.1l.1-.2c.1.1.1.2.1.2zm.8-.9c0 .2 0 .4-.1.4s-.2.1-.3.2l.1-.3.3-.3zm-.2-19c.1 0 .1-.1.2-.1v-.1-.1l-.3.1.1.2zm1-.7l-.3.2-.4.2c.3.1.7-.1.7-.4zm-.6 43.2c.1-.1.1-.2.1-.3 0-.1.1-.2.1-.2l-.3.2s.1.1.1.3zm.8-23.3c-.1.1-.2.3-.3.4-.1.1-.3.2-.5.1l.4-.3.4-.2zm.9-3.5l-.6.7-.6.6c.3-.1.5-.2.7-.5.3-.2.5-.5.5-.8zm0 2.5c-.1.2-.3.4-.4.6-.1.2-.3.4-.5.4V64l-.1-.3c.4-.2.7-.3 1.1-.5h-.1zm.4-1.2h-.2c.1-.1.1-.2.2-.2s0 0 .1.1v.1h-.1zm.6-2.1c-.4.2-.6.4-.7.6.3 0 .6-.3.8-.6h-.1zm-.1-17.6c-.3.1-.4.4-.5.7h.2l1.4-.6 1.4-.6c.1-.1.2-.2.2-.4h-.8l-.2.2c0 .1-.1.1-.2.1-.3 0-.5.1-.8.2-.2.2-.5.3-.7.4zm.2 46.1c0 .1-.1.2-.1.2h.4l-.3-.2zm.3.2c-.1.2-.1.4 0 .5h.6c0-.2 0-.3-.1-.5h-.5zm.6-.4c.1-.2.1-.3 0-.4-.1-.1-.3-.2-.5-.2.1.1.1.2.2.3 0 .1.1.2.2.2 0 0 .1 0 .1.1h.1-.1zm0-29.2s-.1 0-.1-.1h-.1s-.1 0-.1.1v.1l.1.2.2-.3zm0 30.7c.1-.1.3-.1.4 0 .1.1.3 0 .4-.2-.1 0-.1-.1-.1-.2s-.1-.1-.1-.2c-.1-.2-.3-.2-.5 0 0 .2.1.4.1.5l-.2.1zm.1-1.3c.3.2.6.5 1 .7.4.2.8.4 1.2.4-.1-.2-.1-.3-.1-.4l-.4-.1-.4-.2c-.1-.1-.2-.2-.2-.5h-.1l-.1.1c-.1 0-.1 0-.1.1-.1-.2-.2-.4-.4-.6l-.1.2-.3.3zm.2-28.5l-.1.1v-.1c.1 0 .1-.1.2-.2l.1.1-.2.1zm.9.7c.2-.1.4-.1.6-.2.1 0 .1-.2.1-.4-.2.1-.5.2-.7.4v.3-.1zm.6 30.1c.1.1.2.1.3 0 .1-.1.1-.2.2-.3l-.2-.1-.2-.1c0 .1 0 .2-.1.3 0 .1.1.2.2.2h-.2zm.3-34s0-.1 0 0l-.3.1h.1v.1c.1-.1.2-.2.3-.2h-.1zm.5 33.8c-.1.3.1.4.4.3l-.3-.3h-.1zm.2-32c.2 0 .3-.1.5-.2.1 0 .1-.2.1-.3-.2.1-.3.3-.5.5h-.1zm1-17.9l-.5.2-.4.1v.2c.3 0 .6 0 .9-.1.1-.1.2-.2.1-.2v-.2h-.1zm-.5 1h-.3c.1.1.2.1.3 0 0 0 0-.1.1-.1l-.1.1zm0 14.9c0 .1-.1.2-.1.3-.1 0-.1-.1-.1-.1l.2-.2zm0 33.2h.8v-.2-.1l-.2-.1h-.2c-.4 0-.4.1-.4.4zm.1-31.8c.2-.1.4-.2.5-.3v-.1h-.1-.1c-.1.1-.1.1-.1.2l-.2.2zm.9 33.8c.1-.2.1-.3.2-.4.1-.1.1-.3.2-.4-.2-.1-.5-.3-.7-.4h-.4c.1.1.3.2.4.3.2.1.3.2.4.3l-.4.4c.1 0 .2 0 .3.2zm.1-1.8c-.1.2-.2.3-.2.3h.3c0-.1 0-.3-.1-.3zm.3-35.6c0 .1-.1.2-.1.2.1 0 .1-.1.1-.2zm.4 35.8l-.2-.1h-.2l.1.2c.1 0 .2-.1.3-.1zm-.2-34.6c.3-.1.5-.2.7-.4.1-.1 0-.3-.2-.5l-.3.5s0 .1-.2.4zm.6-3.1c-.1 0-.1-.1-.2-.1-.1.1-.1.1-.1.2 0 0 0 .1.1.1l.2-.2zm1.5 39.5c0-.1 0-.1.1-.2l-.6-.2-.6-.2h-.2l-.3.1c.2.2.5.4.7.4.4-.1.7-.1.9.1zm.9-.5s0-.1 0 0v-.2l-.1-.1c0 .1-.1.1-.1.2v.1c.1-.1.2-.1.2 0zm.2-49.2l.2.1.2.1c.1-.1.1-.1.1-.2 0-.2-.2-.3-.3-.2h-.1l-.1.2zm1.8 50.8c0-.1 0-.1.1-.2-.1 0-.3 0-.4-.1v.3c.1.1.2.1.3 0zm1.1 0l-.2-.1c-.1 0-.1.1-.2.1h.4zM274.4 58.8c.2.1.3.2.4.3-.1 0-.2.1-.3.1h-.2c-.4-.2-.8 0-1.1.5V60l-.4.2-.4.2c-.2.1-.3.2-.5.3-.2.1-.4.2-.5.3-.1.1-.2.2-.3.2-.1 0-.1 0-.2-.1-.1.2-.2.4-.2.6 0 .2.1.4.2.5l.7.7c.2.2.4.5.4.8 0 .2.1.4.3.6l.4.4c.4.6.8 1.2 1.1 1.8l.1.1.1.1.3.3.3.3.4.5c.1.2.3.3.4.4.4.6.9 1.2 1.4 1.7.2.2.3.5.5.7l.6.6.2.2c.1.1.1.2 0 .3s0 .1.1.2c.2.1.3.2.5.3.1.1.3.2.5.2.1 0 .2 0 .3.1.1 0 .1.2 0 .4 0 0 0 .1.1.1h.2c.1.1.2.1.3.2.1.1.2.1.4.2l.6.3.6.3.3.2c.4.3.9.4 1.4.3.6-.1 1-.5 1.1-1.1.1-.2.2-.3.3-.5.1-.1.2-.1.3-.1l.2.3v.3c0 .2 0 .3-.1.5 0 .2-.2.4-.3.5-.2.2-.3.4-.5.6-.1.2-.3.4-.6.5-.4.2-.8.3-1.2.5-.4.2-.8.3-1.3.4-.7.1-1.3.1-2 .1-.6-.1-1.2-.2-1.7-.4s-.9-.4-1.3-.7l-1.2-.9c-.5-.5-1.1-1-1.5-1.5-.5-.5-1-1-1.5-1.6-.5-.5-.9-1.1-1.4-1.6l-1.3-1.6c-.4-.4-.7-.9-1.1-1.3-.4-.4-.7-.9-1-1.4l-.3-.3c-.1-.1-.2-.2-.2-.4s-.2-.2-.5 0l-.6.6c-.2.2-.4.3-.7.3-.1 0-.1.1-.2.3l.1.2.2-.2c.1-.1.2-.2.2-.3h.2c0 .1 0 .2-.1.2s0 .2-.1.2c-.1.1-.1.3-.2.4-.1.1-.1.2-.1.4s-.1.4-.2.6c-.2.1-.4.1-.5.1l.2.1.2.1c-.1.1-.2.1-.2.2l-.1.1-.1.1s.1.1.2.1h.2l-.8 2.5c-.3.8-.5 1.7-.7 2.5v.2l-.2.4c-.1.1-.1.2-.2.3-.1.1-.2.1-.3.2l-.4.2.2.1.3.1-.6.2-.2.2c.2.1.3.2.3.3 0 .2-.1.3-.1.5l-.4 1.4-.3 1.5c-.1.3-.1.6-.1.9-.1.4-.2.7-.4 1-.1.1-.1.2-.1.4v1.5c.1.1.1.3.1.4 0 .2.1.3.1.5h-.1c-.4 0-.7-.2-1-.4-.3-.2-.5-.5-.6-.8-.2-.3-.3-.6-.4-1-.1-.4-.1-.7-.2-1.1-.1-.5-.1-1.1-.1-1.6 0-.6 0-1.1.1-1.7.1-.4.1-.8.2-1.2l.3-1.2c.1-.6.2-1.2.4-1.8.2-.6.3-1.2.5-1.9.1-.2.1-.5.2-.8.1-.3.2-.5.2-.8.1-.1.1-.3.2-.4 0-.1 0-.2.1-.2s0-.2.1-.2v-.1c.1-.3.2-.7.3-1l.2-1-.3.1-.4.1h-.4c-.1 0-.3.1-.4.1-.2 0-.4-.1-.5-.1-.2-.1-.4-.1-.6-.2-.2-.2-.4-.3-.6-.4-.2-.1-.4-.3-.5-.5-.2-.2-.4-.5-.5-.9-.1-.4-.2-.7-.2-1.1 0-.2 0-.3-.1-.5v-.5c-.1-.2 0-.3.2-.5l-.1-.1c.1-.1.1-.2.2-.3.1-.1.1-.2.1-.4h.2c.1 0 .1.1 0 .2-.1.2-.2.5-.1.7v.8s0 .1.1.1v.5l.3.3c.1.1.2.2.3.2.6.2 1.2.1 1.8-.1.4-.1.8-.3 1.1-.5l1.1-.6.2-.1c0-.1.1-.2.1-.2 0-.1.1-.2.1-.2.1-.1.1-.2.1-.3 0-.1.1-.2.1-.3.1-.4.2-.8.4-1.1l.5-1.1.5-1.4c.2-.5.4-.9.5-1.4l.6-1.5c.2-.5.4-1 .7-1.5.5-1 .9-2 1.4-3 .3-.6.5-1.2.8-1.8.2-.6.5-1.2.8-1.7l1.4-2.8c.5-.9.9-1.8 1.4-2.8.3-.6.5-1.1.8-1.6s.6-1.1.9-1.6c.2-.4.4-.7.6-1.1s.4-.8.6-1.1c.1-.2.3-.4.5-.6.2-.2.4-.3.7-.3.6 0 1.2.1 1.7.4l.3.3c.1.1.2.2.4.3.3.1.5.4.6.7.1.3.1.6.2.9.1.5 0 0 0 0l-.3.6-.2.6c-.1.2-.1.4-.2.6-.1.2-.2.4-.4.6-.3.3-.5.5-.7.8-.2.3-.4.7-.6 1.1 0 .1-.1.3-.2.4-.1.1-.2.3-.3.4l-.6 1-.6.9-.3.6c-.1.2-.1.4-.1.6 0 .1 0 .1-.1.2l-.2.2-.5.4c-.2.2-.3.4-.3.6 0 .1-.1.2-.2.3-.1.1-.2.2-.2.3v.2l-.1.3c0 .1-.1.2-.1.2-.1.1-.2.2-.4.3l-.5.4.3.1.2.1s-.1.1-.1.2c0 0 0 .1-.1.1-.4.2-.7.6-.7 1 0 .1 0 .3-.1.4-.1.1-.1.3-.2.4-.1.1-.2.3-.2.4l-.3.3c-.1.1-.1.2-.2.2-.2.1-.3.2-.3.2 0 .1.1.2.1.2l-.3.3c0 .1-.1.1-.1.1-.1 0-.1.1-.1.2l.5-.1v.2c-.1.1-.2.2-.4.2-.1.1-.2.1-.3.2l-.2.5-.2.5.1.1c.2-.2.5-.5.6-.7l1.4-1.8c.5-.6 1-1.2 1.5-1.7.3-.3.6-.7.9-1 .3-.3.6-.7.9-1 .2-.2.4-.4.7-.6.2-.2.4-.3.6-.5l.5-.5c.1-.2.2-.3.4-.4l2-1.6c.7-.5 1.3-1 2-1.5.7-.4 1.3-.8 1.9-1.1.6-.3 1.2-.5 1.9-.7l.7-.1.7-.1c.2.2.4.3.7.4.3.1.5.4.5.8v.3c0 .1.1.2.1.3.1.3.1.6 0 .9-.1.3-.2.6-.4.9-.3.8-.7 1.5-1.2 2.2l-1.5 2.1c0 .1-.1.1-.2.2l-.2.2-.3.3-.4.5-.4.5c-.2.2-.5.5-.8.7-.3.2-.5.5-.7.8-.1.2-.2.3-.4.4-.2.1-.3.3-.5.4l-.6.6-.7.6c-.1.1-.2.1-.3.2-.1 0-.2.1-.4.1 0 .2-.1.3-.2.4-.1.1-.3.3-.5.4-.3.2-.6.5-.9.7l-.8.8c-.4.4-.9.7-1.5.8l.1.3zm-13.2 6.5c.3 0 .5-.2.6-.5v-.1l-.3.2c-.1 0-.1.1-.2.1-.2 0-.3 0-.5.1s-.3.1-.5.2l-.3.1h-1v.1c.2.1.5.1.8.2.3 0 .6-.1.9-.2.1-.2.3-.3.5-.2zm.1 6.4c.4-.1.5-.2.5-.6 0-.1.1-.3.2-.3h-.5c-.1 0-.3 0-.4.1-.1 0-.3.1-.3.3l-.3.6c0 .1 0 .2-.1.4 0 .1 0 .3-.1.4-.1.3-.2.6-.2.9-.1.3-.1.6-.2.9-.1.1-.1.3-.1.4 0 .1-.1.2-.3.2l-.2.2c.1.1.1.1.2.1l.2-.1c-.2 1-.4 1.9-.5 2.8-.2.9-.1 1.8.1 2.7 0-.1.1-.1.1-.2v-.2c.1-.4.1-.8.1-1.3 0-.4.1-.8.2-1.3l.2-.7.2-.7V76v-.3c0-.1.1-.3.2-.3.2-.1.4-.3.5-.5.2-.2.3-.4.2-.6 0-.2 0-.4.1-.6l.2-.4c.1-.1.1-.3.2-.4l-.3.2-.2.1h-.2c-.1 0-.1-.1-.1-.1s0-.3.1-.4c0-.1.1-.3.1-.4l.2-.3c0-.2.1-.3.2-.3zm-.4-2.7l-.3.5c-.1.2-.2.4-.2.6.1.1.2.1.3 0 .1-.1.2-.2.3-.4.1-.2.1-.4.2-.6s.1-.4.2-.6c-.1 0-.2 0-.3.1l-.2.4zm-.3 4.8c0-.1 0-.1.1-.2 0-.1 0-.1.1-.2h.2l-.1.6c0 .2 0 .4-.1.6 0 .1 0 .1-.1.1l-.2.1v-.3-.4c0 .1 0-.1.1-.3zm1.2-4.2c.1-.2 0-.3-.1-.3s-.2-.1-.3-.1c-.1.2-.1.4-.2.6 0 .2-.1.3-.1.5-.1.2 0 .3.3.2s.4-.2.4-.4c-.1-.1-.1-.3 0-.5zm-.2 2.4H261.3l-.2.8h.2l.1-.4.2-.4zm.3 1.8c.1-.1.1-.2.1-.3 0-.1.1-.3.1-.4-.2.1-.3.2-.5.3 0 .1 0 .2.1.5l.2-.1zm-.2-5H262c.1-.2.1-.3.1-.5s0-.3.1-.5c0 0-.1 0-.2-.1l-.1.1-.1.1-.1.6v.3zm.1 1.7c.2 0 .4-.2.5-.4.1-.3.2-.7.2-1.1-.4.4-.7.9-.7 1.5zm1.1-2.3c0-.1 0-.1-.1-.1s-.1-.1-.1-.1l-.2.3c-.1.1-.2.3-.2.4l.1.1.1.1c.2-.3.3-.5.4-.7zm-.2-.7c.1-.1.2-.1.3-.2l.4-.2c-.4-.2-.6-.1-.7.2v.2zm1 1.2h-.2c-.1 0-.1.1-.2.2 0 .2-.1.3-.2.4-.1.1-.1.3 0 .4h.1c.1 0 .1 0 .1-.1.2-.2.3-.5.4-.8v-.1zm1.4-9.7c.1-.2.1-.4.2-.6.1-.2.2-.4.2-.6l-.2.1c-.2.5-.4.9-.7 1.4-.2.4-.4.9-.5 1.4-.1.3-.2.5-.3.7h.1l-.1.1-.1.1.1.2c0-.1.1-.1.2-.2.1 0 .1-.1.1-.1.1-.3.3-.6.4-.8l.3-.9c0-.1 0-.2.1-.3.1-.2.1-.4.2-.5zm.7-2c.1-.2.2-.3.3-.5.1-.2.2-.3.3-.5v-.2c-.1 0-.1.1-.2.1s-.1.1-.2.1c-.1.1-.2.3-.3.4 0 .3 0 .4.1.6zm.8-1.4c.3-.2.2-.4-.1-.5l-.3.6h.2c.1 0 .2 0 .2-.1zm.2 2.7l.3-.6c.1-.2.2-.4.3-.7-.2 0-.3.1-.4.2-.1.1-.1.2 0 .4l-.4.4c-.1.1 0 .2.2.3zm.4-4.9c-.2.1-.3.3-.3.5s-.1.3-.1.5h.2c.1-.2.2-.3.3-.5.1-.1.2-.3.3-.5v-.1h-.1c-.2.1-.3.1-.3.1s0 .1 0 0zm.8 2.2v-.1c0-.1-.1-.1-.1-.2h-.1c-.1.1-.1.2-.2.3-.1.1-.1.2-.2.3-.1 0-.1.1-.2.1s-.1.1-.2.1v.5c.1 0 .3-.1.4-.2.1-.1.1-.2.2-.3 0-.1.1-.2.1-.3.1 0 .2-.1.3-.2zm.3-3.9v-.1l-.1-.1c-.1 0-.2.1-.3.2l-.2.2-.2.2c.1 0 .2.1.1.2s-.1.2-.2.3c-.1.1-.1.2-.2.4 0 .1 0 .2.2.3l.4-.8c.3-.3.4-.5.5-.8zm1 7.1v.2c.1 0 .2-.1.3-.1.1 0 .2-.1.3-.1v-.2-.3l-.3.3-.3.2zm2.6-.3v-.2l-.2-.1h-.2c-.3.2-.5.4-.8.6s-.5.4-.7.6c-.1.1-.2.2-.2.3 0 .1-.1.2-.1.3 0 .1 0 .1.1.1.6-.6 1.3-1.1 2.1-1.6zm-1.8-.5c0 .1 0 .1.1.2l.7-.5.7-.5v-.1-.1l-.8.5c-.2.2-.4.4-.7.5zm1.7-1.9l2.2-1.7 2.1-1.8c.7-.6 1.4-1.2 1.9-1.8.7-.6 1.3-1.3 1.9-1.9.6-.5 1.1-1.1 1.6-1.7l1.5-1.8c.2-.2.4-.5.5-.8.2-.3.3-.6.4-.9-.4.1-.7.3-1 .4-.3.1-.7.3-.9.6l-.6.5c-.2.1-.4.3-.5.4-.2.2-.4.3-.6.4-.2.1-.4.2-.5.4-.1 0-.1.1-.1.1v.1c-.1.2-.2.3-.3.4l-.9.6-.9.6c-.4.3-.8.7-1.1 1.1-.2.3-.4.5-.5.8-.2.3-.3.5-.5.8-.3.4-.6.7-.9 1-.3.3-.6.6-.9 1-.5.5-.9 1.1-1.3 1.7l-1.3 1.7c-.1.1-.2.2-.2.3l-.2.3.1.1.5-.3c.2-.3.4-.4.5-.6zm1.3 1.2c.4-.1.7-.3 1-.6.3-.3.6-.5.9-.8l.5-.5c.2-.1.3-.3.5-.4 0-.1.1-.1.1-.2.1 0 .1-.1.1-.2l-.1-.1c-.1 0-.2.1-.3.2-.3.2-.6.5-.9.8-.3.3-.6.5-.9.8l-.7.6c-.2.2-.5.4-.7.6v.1h.2l.1-.1c.1-.1.2-.1.2-.2zm2 15l-.2.2-.1.1.4.4.1-.1c0-.2-.1-.4-.2-.6zm3.4-25.7c-.3.1-.6.3-.8.6-.2.2-.4.4-.7.5v.4l.8-.7.8-.7-.1-.1c.1 0 .1 0 0 0zm3.3-2.1c-.1-.2-.1-.3-.2-.3s-.3.1-.4.2c0 .1.1.2.2.2.1.1.2 0 .4-.1zm2.3-1.7l-.7.3-.8.4c.2.2.5.2.7 0 .3-.2.6-.4.8-.7z"/><path class="st0" d="M295.2 43.4c.4.1.7.3 1 .6l.8.9.2.3v.4c-.1.3-.1.7-.1 1 0 .4-.1.8-.3 1.1-.2.5-.5 1-.8 1.4-.3.4-.6.9-.8 1.4-.2.4-.4.9-.5 1.4s-.4.9-.6 1.4c0 .1-.1.3-.1.4l-.2.5-.3.6-.3.6c-.1.4-.3.7-.5 1.1-.1.2-.3.5-.4.6-.1.2-.1.4 0 .6.1.1 0 .2-.1.4s-.2.3-.4.4c-.3.3-.4.7-.3.9.1.2.1.3-.1.5-.2.1-.3.2-.4.4l.1.1h.1l-.3.5-.3.6c-.3.5-.5 1-.7 1.5-.1.1-.1.3-.1.4v.3c.1.2.1.5 0 .7-.2.2-.3.4-.3.7 0 .2-.1.3-.1.5-.1.2-.2.3-.4.4V66.6c-.1.1-.2.3-.3.5 0 .2 0 .3.1.4v.5c-.1.3-.1.7-.1 1s-.1.7-.1 1h-.7v.2c.1 0 .2.1.3.1l.3.1c-.1.3-.1.5-.1.8 0 .4-.1.7-.3 1-.1.1-.1.2-.1.3v.2c0 .1 0 .2-.1.3 0 .1-.1.2-.1.2-.3.3-.4.5-.3.7.1.2.1.4.2.6s.1.3.1.4c0 .2.1.3.1.5.1.4-.1.6-.5.5-.5-.1-1-.2-1.5-.4s-.8-.7-.8-1.2c-.1-.5-.1-1.1-.2-1.6-.1-.6-.2-1.1-.1-1.7.1-.9.1-1.9.2-2.9s.3-1.9.5-2.9c.1-.5.1-1 .2-1.4l.3-1.5.4-1.5c.1-.5.3-1 .4-1.5.3-1.1.6-2.2 1-3.2s.7-2.1 1.1-3.2c.3-.8.6-1.7.9-2.5.3-.9.7-1.7 1-2.5.3-.7.6-1.5.9-2.2l.8-2.2c0-.1.1-.2.1-.2.1-.1.1-.2.2-.2 1 0 1.7.1 2.4.3zm-8.4 24v-.3l-.1-.3-.1.4c0 .1-.1.2-.1.3-.1.7-.3 1.3-.4 1.9-.1.6-.1 1.3 0 1.9 0 0 0 .1-.1.3-.1-.2-.1-.4-.1-.6 0-.2-.1-.4-.2-.6v-.3c0-.1.1-.2.1-.3v-.3c-.1-.1-.1-.2-.2-.2-.1.7-.1 1.3-.1 2v2c0 .1.1.2.1.3 0 .1.1.2.1.3.3-.3.4-.5.3-.7 0-.2-.1-.4-.1-.6v-.4c.1-.1.1-.3.3-.4.2-.1.3-.4.3-.6 0-.2 0-.4-.1-.6.1-.2.1-.3.2-.5.1-.1.1-.3.1-.4-.1-.2-.1-.5-.1-.7 0-.3.1-.5.2-.8.1-.2.1-.5 0-.8zm-1.1 0l-.1.4-.1.4h.3c0-.2 0-.3.1-.4s0-.3.1-.4 0 0-.1 0h-.2zm3-5.5c.1 0 .2-.1.3-.2.1-.1.1-.2.1-.3v-.3c0-.1.1-.2.1-.3-.1 0-.3 0-.4-.1-.2 0-.3-.1-.5-.2l-.1.2-.1.3c-.1.4-.3.8-.4 1.2s-.3.8-.4 1.3l-.3 1.2c-.1.4-.2.8-.3 1.3v.2l.1.2.2-.1c.1 0 .1-.1.1-.2 0-.2.1-.5.2-.7.1-.2.2-.4.1-.7 0-.1 0-.2.1-.3.1-.2.2-.3.2-.4.1-.2.3-.3.4-.5l-.2-.3c-.1-.1-.1-.1-.1-.2.1-.3.2-.5.3-.8.1-.2.2-.5.3-.7.1 0 .1.1.1.2s.1.2.2.2zm-.5 1c.3 0 .4-.1.5-.2.1-.1.1-.2 0-.4v-.1l-.1-.1c-.1.1-.1.2-.2.4l-.2.4zm1-2.3c.1 0 .2-.2.3-.5.1-.3.1-.5 0-.8-.3.1-.6.3-.8.5-.1.1 0 .2 0 .5 0 .1.1.2.2.3.1-.1.2 0 .3 0zM304.7 31c.1.5 0 .9-.2 1.4-.2.5-.5.9-.9 1.3-.2.3-.4.5-.7.8-.2.3-.5.5-.7.8-.2.2-.4.4-.5.7l-.4.8c-.1.3-.3.6-.7.7-.2.1-.3.2-.4.4-.1.2-.2.3-.3.5-.1.3-.3.5-.4.7l-.6.6c-.1.1-.2.2-.3.4-.2.3-.4.5-.5.6-.2 0-.4 0-.5-.2-.5-.3-.8-.7-.9-1.2-.1-.6-.1-1.2.2-1.8.5-1.2 1.1-2.4 1.6-3.5s1.1-2.4 1.6-3.5c.1-.3.3-.7.5-1 .1-.3.3-.6.6-.8.4-.1.7-.2 1.1-.1l-.2.2-.2.2c.1.1.1.2.2.1.3-.2.6-.2.9-.3.3 0 .5.1.7.3l.1.2c0 .1.1.1.1.2s0 .2.1.3c.1.1.2.2.3.2.2.1.3.3.3.5.1.1.1.3.1.5zM329.5 53.7l-.2.2c-.1.1-.1.2-.1.3-.1.3-.2.6-.5.8-.1.2-.2.3-.3.5 0 .1-.1.2-.1.3l-.1.3-.3.3-.3.3-.5.5-.5.5-.1.2-.1.2-.2.2c-.1.1-.1.2-.2.2-.2.2-.5.4-.7.6s-.5.4-.8.6c-.1.2-.3.3-.5.4l-.5.4-.1.1-.1.1-.2.1-.4.3-.4.3c-.3.3-.6.5-.9.7-.3.2-.5.5-.8.8l-.3.3-.4.3-.6.6-.6.6c-.3.4-.7.6-1.2.8l-.4.2c-.1.1-.2.1-.3.2h-.1l-.2.2c-.1.1-.2.2-.2.3-.1.2-.2.4-.4.5-.2.1-.4.3-.6.4-.1 0-.1.1-.2.1l-.2.1-.1.1-.2.1c-.1.1-.2.1-.3.2-.4.4-.9.7-1.5.7h-.4c-.2 0-.3.1-.5.3-.1.1-.3.2-.5.3l-.4.8-.5.1c-.2 0-.3.1-.5.2-.4.2-.8.3-1.3.4l-.5.1H307.9l-.7-.1h-.7c-.5 0-1 0-1.5-.1s-1-.2-1.4-.2c-.5-.1-.9-.3-1.3-.5-.1 0-.3-.1-.4-.2l-.4-.3-.1-.1-.1-.1-.1-.1c0-.1-.1-.1-.2-.1-.2 0-.5-.1-.6-.2-.2-.1-.4-.3-.5-.5-.2-.2-.4-.4-.7-.6 0-.3-.1-.5-.3-.7-.1-.1-.3-.3-.5-.4-.1-.1-.1-.1-.1-.2s-.1-.2-.1-.3c-.1-.1-.1-.1-.1-.2s-.1-.2-.1-.2c-.2-.4-.4-.8-.5-1.2-.2-.5-.3-1.1-.3-1.7v-.3-.3c-.1-.4-.1-.8-.1-1.2v-1.2c.1-.5.1-.9.1-1.3s.1-.9.2-1.3c.1-.7.3-1.5.5-2.2s.4-1.5.6-2.3c.1-.3.2-.7.3-1l.5-1 .2-.6c.1-.2.2-.4.2-.6.1-.1.1-.3.1-.4 0-.1 0-.3.1-.4v-.2-.2-.1-.1l.6-1.2.8-1.5c.3-.5.5-1 .8-1.5.7-1.1 1.4-2.3 2.1-3.5s1.5-2.4 2.3-3.7c.2-.4.5-.7.7-1.1.3-.3.6-.7.9-1.1 0-.1.1-.1.1-.2l.1-.2c.3-.3.6-.7.8-1s.5-.7.8-1l1.3-1.5 1.3-1.6c.3-.4.6-.7.9-1.1.3-.3.6-.7.9-1l1-1.2 1.1-1.1c.4-.4.7-.7 1-1.1l.3-.3.3-.3.2-.3c.1-.1.2-.3.2-.5V22h.8c.5-.1 1.1 0 1.6.2l.5.3.5.3.5.3.5.3c.1.2.3.5.5.7l.5.5c.1.1.3.2.4.4.1.1.2.2.3.4v.2c.2.3.3.5.4.8.1.2.2.5.3.8v.4c0 .1.1.2.1.3.1.1.1.1.1.2l.1.2v2.1c-.1.1-.1.2 0 .3l.1.2c.1.1.1.3 0 .6l-.1.3v.3c0 .1 0 .2-.1.3 0 .1 0 .2.1.4v.1c-.2.1-.3.3-.4.5-.1.2-.1.3-.2.5v.2c-.1.2-.1.4-.2.6-.1.2-.2.4-.2.6-.1.4-.3.7-.4 1-.1.3-.2.7-.4 1-.1.1-.1.2-.2.3l-.2.3-.1.1-.1.1c-.5 0-1 .4-1.3 1.2 0 .1-.1.1-.1.2-.1.1-.3.2-.5.2h-.2l.7-2.8c.2-.9.4-1.9.5-2.8.1-.5.1-1.1.1-1.7v-1.7-.6-.6c0-.2 0-.4-.1-.6-.1-.1-.1-.1-.1-.2l-.1-.2h-.4l-.2-.3-.3.3c-.1 0-.1 0-.1.1-.1.1-.3.2-.4.3l-.2.2-.3.2c-.5.4-1 .9-1.5 1.4l-1.4 1.5c-.5.6-1.1 1.2-1.6 1.8-.8.9-1.5 1.8-2.3 2.8-.2.2-.3.5-.4.8-.1.1-.2.3-.3.5l-.2.2-.2.2c-.1.1-.1.2-.2.2l-.3.3-.7 1-.7 1c-.4.5-.8 1.1-1.1 1.6l-1.1 1.6-.1.1c-.1.1-.1.2-.2.3v.1c-.1.1-.1.2-.1.2l-.1.2-.1.2c-.1.1-.1.2-.2.3-.1.1-.1.3 0 .4l-.1.2-.1.2c-.1.2-.2.3-.3.3-.2 0-.4.2-.5.4-.1.2-.1.3-.2.4-.1.1-.1.3-.1.4 0 .1-.1.3-.1.4l-.1.3c0 .1-.1.2-.1.3-.2.1-.4.3-.5.5-.1.2-.2.3-.3.5-.1.2-.2.3-.3.5-.1.1-.1.2-.2.3-.1.1-.1.3 0 .4 0 .2-.1.4-.2.5l-.2.4c-.1.1-.1.3-.1.4 0 0-.1 0-.1.1l-.1.1c-.1.1-.1.1-.1.2s-.1.2-.1.2c-.1.2-.1.3-.1.4l-.1.3c-.1.2-.1.4-.2.6-.1.2-.1.3-.2.5l-.2.4c-.1.1-.1.1-.1.2l-.1.2c-.2.3-.3.6-.5.9-.2.3-.2.7-.3 1.1 0 .3-.1.7-.2 1-.1.1-.1.3-.1.5l-.1.4c-.3 1.4-.5 2.8-.7 4.1 0 .3.1.6.2.9l.3.9c0 .1.1.2.1.3v.3c0 .5.4.9.8.9h.1c.7 0 1.5 0 2.3-.1.8-.1 1.6-.3 2.3-.7.2-.1.3-.2.5-.3.2-.1.3-.2.5-.2l.7-.3c.2-.1.5-.2.7-.4.1-.1.3-.2.5-.2.2-.1.3-.2.5-.2l1.4-.8c.5-.3.9-.6 1.3-1 .1-.1.3-.2.5-.3l.5-.3.3-.2.3-.2.2-.1c.5-.4 1.1-.7 1.6-1.1l1.5-1.2c.7-.5 1.3-1 1.9-1.5l1.7-1.4.3-.3.2-.2c.2.3.3.4.4.4.1-.1.3-.2.4-.3 0-.1.1-.1.2-.2l.2-.2c.1-.1.2-.2.3-.2.1-.1.2-.1.3-.2.2-.3.5-.5.7-.7l.8-.6 1.2-.9c.4-.3.7-.7 1.1-1.1v-.3c.4.2.9 0 1.1-.3l.3-.3c-.1 0-.1 0 0 .1-.2.3-.5.5-.7.8l-.8.7-.2.2c-.1.1-.2.1-.2.2-.3.2-.5.4-.7.7-.2.2-.5.5-.8.7l-.3.3-.3.3s-.1 0-.1.1c-.3.2-.6.3-.8.6-.2.2-.5.4-.7.7-.3.3-.6.6-1 .9-.1.1-.3.2-.4.3-.5.3-.9.6-1.3 1-.3.2-.5.4-.7.7l-.3.2-.2.2c-.2.2-.4.3-.7.5-.1.1-.2.2-.3.2l-.3.2.3.8.3-.1h.2c.2 0 .3-.1.5-.2l.5-.3.5-.3.4-.3c.2-.1.2-.3.2-.5h.1l.1-.1s.1 0 .1-.1c.5-.3.9-.6 1.3-.9 0-.1.1-.1.2-.2l.2-.2.4-.3.4-.3.5-.5.5-.5c.3-.2.6-.5.9-.7.3-.2.6-.5.9-.7 0-.1.1-.1.2-.2.1 0 .1-.1.2-.2h.2l-.3.3-.2.3v.1H326.9l.7-.6.7-.6.3-.3.3-.3c.2-.2.3-.4.3-.7l.3-.2c.1-.1.2-.1.3-.2.1-.1.1-.2.2-.2l.3-.2-.1.1c.3-.1.5-.3.8-.5.2-.2.4-.4.5-.7l.2-.2.1.1c.2 0 .4-.1.5-.3.1-.1.2-.2.1-.2s-.1.1-.3.3c-.3.4-.6.9-.8 1.4-.3.4-.7.7-1.1 1l-.3.2c-.1.1-.2.2-.4.3zm-32.1 7.2c.2-.2.4-.4.5-.7.1-.3-.1-.6-.3-.7 0 .2 0 .5-.1.7 0 .2 0 .4-.1.7zm.6-2.1l.1-.2.2-.4-.4-.1c-.1.1-.1.2-.1.2l-.1.2c0 .2.1.3.3.3zm2.5-8c-.2.1-.4.3-.5.6 0 .2 0 .4.1.6.2-.2.3-.4.5-.6 0-.3 0-.5-.1-.6zm.6-1.8c-.1.2-.2.4-.2.6l-.2.7s0 .1.1.1l.9-1.8.9-1.8h-.2c-.2.1-.3.3-.4.5-.1.2-.2.4-.2.6l-.3.6c-.2.1-.3.3-.4.5zm1.5-2.6l.1.2c.1 0 .1-.1.2-.1s.1-.1.1-.1c.1-.3.2-.5.3-.8.1-.1.1-.2.1-.2v-.2h-.2l-.4.7s-.1.2-.2.5zm1.6-2.4c-.3.1-.5.3-.7.5-.1.1 0 .3.2.5.1-.4.3-.7.5-1zm19.7 10.2c-.1.2-.2.3-.3.5-.1.1-.2.3-.4.4l-.4.3-.4.3.2-.2.2-.2c.1-.2.3-.3.5-.4l.5-.4.7-.6.7-.6.5-.4c.2-.1.3-.3.5-.4l.3-.3c.1-.1.2-.3.4-.3.2-.2.4-.3.6-.5l.2.2c-.1 0-.2.1-.3.1l-.5.4c-.2.2-.4.3-.5.5l-.7.8-.8.8c-.5-.5-.7-.4-1 0zm5.8-4l-.2.2-.2.2c.1-.1.2-.3.4-.4z"/><path class="st0" d="M343.1 42.4c.2.1.3.2.4.3-.1 0-.2.1-.3.1h-.2c-.4-.2-.8 0-1.1.5V43.6l-.4.2-.4.2c-.2.1-.3.2-.5.3-.2.1-.4.2-.5.3-.1.1-.2.2-.3.2-.1 0-.1 0-.2-.1-.1.2-.2.4-.2.6 0 .2.1.4.2.5l.7.7c.2.2.4.5.4.8 0 .2.1.4.3.6.1.1.3.3.4.5.4.6.8 1.2 1.1 1.8l.1.1.1.1.3.3.3.3.4.5c.1.2.3.3.4.5.4.6.9 1.2 1.4 1.7.2.2.3.5.5.7l.6.6.2.2c.1 0 .1.2 0 .3s0 .1.1.2c.2.1.3.2.5.3.1.1.3.2.5.2.1 0 .2 0 .3.1.1 0 .1.2 0 .4-.1.3 0 0 .1.1h.2c.1.1.2.1.3.2.1.1.2.1.4.2l.6.3.6.3.3.2c.4.3.9.4 1.4.3.6-.1 1-.5 1.1-1.1.1-.2.2-.3.3-.5.1-.1.2-.1.3-.1l.2.3v.3c0 .2 0 .3-.1.5 0 .2-.2.4-.3.5-.2.2-.3.4-.5.6-.1.2-.3.4-.6.5-.4.2-.8.3-1.2.5-.4.2-.8.3-1.3.4-.7.1-1.3.1-2 .1-.6-.1-1.2-.2-1.7-.4s-.9-.4-1.3-.7l-1.2-.9c-.5-.5-1.1-1-1.5-1.5-.5-.5-1-1.1-1.5-1.6s-.9-1-1.4-1.6L338 52c-.4-.4-.7-.9-1.1-1.3s-.7-.9-1-1.4l-.3-.3c-.1-.1-.2-.2-.2-.4s-.2-.2-.5 0l-.6.6c-.2.2-.4.3-.7.3-.1 0-.1.1-.2.3l.1.2.2-.2c.1-.1.2-.2.2-.3h.2c0 .1 0 .2-.1.2s0 .2-.1.2c-.1.1-.1.3-.2.4-.1.1-.1.2-.1.4s-.1.4-.2.5c-.2.1-.4.1-.5.1l.2.1.2.1c-.1.1-.2.1-.2.2l-.1.1-.1.1s.1.1.2.1h.2l-.8 2.5c-.3.8-.5 1.6-.7 2.5v.2l-.2.4c-.1.1-.1.2-.2.3-.1.1-.2.1-.3.2l-.4.2.2.1.3.1-.2.2-.2.2c.2.1.3.2.3.3 0 .2-.1.3-.1.5l-.4 1.4-.3 1.5c-.1.3-.1.6-.1.9-.1.4-.2.7-.4 1-.1.1-.1.2-.1.4v1.5c.1.1.1.3.1.4 0 .2.1.3.1.5h-.1c-.4 0-.7-.2-1-.4-.3-.2-.5-.5-.6-.8-.2-.3-.3-.6-.4-1-.1-.4-.1-.7-.2-1.1-.1-.5-.1-1.1-.1-1.6 0-.6 0-1.1.1-1.7.1-.4.1-.8.2-1.2l.3-1.2c.1-.6.2-1.2.4-1.8.2-.6.3-1.2.5-1.9.1-.2.1-.5.2-.8.1-.3.2-.5.2-.8.1-.1.1-.3.2-.4 0-.1 0-.2.1-.2s0-.2.1-.2v-.1c.1-.3.2-.7.3-1l.3-1-.3.1-.4.1h-.4c-.1 0-.3.1-.4.1-.2 0-.4-.1-.5-.1-.2-.1-.4-.1-.6-.2-.2-.2-.4-.3-.6-.4-.2-.1-.4-.3-.5-.5-.2-.2-.4-.5-.5-.9-.1-.4-.2-.7-.2-1.1 0-.2 0-.3-.1-.5v-.5c-.1-.2 0-.3.2-.5l-.1-.1c.1-.1.1-.2.2-.3.1-.1.1-.2.1-.4h.2c.1 0 .1.1 0 .2-.1.2-.2.5-.1.7v.8s0 .1.1.1v.5l.3.3c.1.1.2.2.3.2l.3.2c.6.2 1.2.1 1.8-.1.4-.1.8-.3 1.1-.5l1.1-.6.2-.1c0-.1.1-.2.1-.2 0-.1.1-.2.1-.2.1-.1.1-.2.1-.3 0-.1.1-.2.1-.3.1-.4.2-.8.4-1.1l.5-1.1.5-1.4c.2-.5.4-.9.5-1.4l.6-1.5c.2-.5.4-1 .7-1.5.5-1 .9-2 1.4-3 .3-.6.5-1.2.8-1.8.2-.6.5-1.2.8-1.7l1.4-2.8c.5-.9.9-1.8 1.4-2.8.3-.6.5-1.1.8-1.6.3-.5.6-1.1.9-1.6.2-.4.4-.7.6-1.1.2-.4.4-.8.6-1.1.1-.2.3-.4.5-.6.2-.2.4-.3.7-.3.6 0 1.2.1 1.7.4l.3.3c.1.1.2.2.4.3.3.1.5.4.6.6.1.3.1.6.2.9.1.5 0 0 0 0l-.3.6-.2.6c-.1.2-.1.4-.2.6-.1.2-.2.4-.4.6-.3.3-.5.5-.7.8-.2.3-.4.7-.6 1.1 0 .1-.1.3-.2.4-.1.1-.2.3-.3.4l-.6 1-.6.9-.3.6c-.1.2-.1.4-.1.6 0 .1 0 .1-.1.2l-.2.2-.5.4c-.2.2-.3.4-.3.6 0 .1-.1.2-.2.3-.1.1-.2.2-.2.3v.2l-.1.3c0 .1-.1.2-.1.2-.1.1-.2.2-.4.3l-.5.4.3.1.2.1s-.1.1-.1.2c0 0 0 .1-.1.1-.4.2-.7.6-.7 1 0 .1 0 .3-.1.4-.1.1-.1.3-.2.4-.1.1-.2.3-.2.4l-.3.3c-.1.1-.1.2-.2.2-.2.1-.3.2-.3.2 0 .1.1.2.1.2l-.3.3c0 .1-.1.1-.1.2-.1 0-.1.1-.1.2l.5-.1v.2c-.1.1-.2.2-.4.2-.1.1-.2.1-.3.2l-.2.5-.2.5.1.1c.2-.2.5-.5.6-.7l1.4-1.8c.5-.6 1-1.2 1.5-1.7.3-.3.6-.7.9-1 .3-.3.6-.7.9-1 .2-.2.4-.4.7-.6.2-.2.4-.3.6-.5l.5-.5c.1-.2.2-.3.4-.4l2-1.6c.7-.5 1.3-1 2-1.5.7-.4 1.3-.8 1.9-1.1.6-.3 1.2-.5 1.9-.6l.7-.1.7-.1c.2.2.4.3.7.4.3.1.5.4.5.8v.3c0 .1.1.2.1.3.1.3.1.6 0 .9-.1.3-.2.6-.4.9-.3.8-.7 1.5-1.2 2.2l-1.5 2.1c0 .1-.1.1-.2.2-.1 0-.1.1-.2.2l-.3.3-.4.5-.4.5c-.2.2-.5.5-.8.7-.3.2-.5.5-.7.8-.1.2-.2.3-.4.4-.2.1-.3.3-.5.4l-.6.6-.7.6c-.1.1-.2.1-.3.2-.1 0-.2.1-.4.1 0 .2-.1.3-.2.4-.1.1-.3.3-.5.4-.3.2-.6.5-.9.7l-.8.8c-.4.4-.9.7-1.5.8l-.6-.1zm-13.2 6.4c.3 0 .5-.2.6-.5v-.1l-.3.2c-.1 0-.1.1-.2.1-.2 0-.3 0-.5.1s-.3.1-.5.2l-.3.1h-1v.1c.2.1.5.1.8.2.3 0 .6-.1.9-.2.1-.1.3-.2.5-.2zm.1 6.5c.4-.1.5-.2.5-.6 0-.1.1-.3.2-.3h-.5c-.1 0-.3 0-.4.1-.1 0-.3.1-.3.3-.1.2-.2.4-.3.5 0 .1 0 .2-.1.4 0 .1 0 .3-.1.4-.1.3-.2.6-.2.9-.1.3-.1.6-.2.9-.1.1-.1.3-.1.4 0 .1-.1.2-.3.2l-.2.2c.1.1.1.1.2.1l.2-.1c-.2 1-.4 1.9-.5 2.8-.2.9-.1 1.8.1 2.6 0-.1.1-.1.1-.2v-.2c.1-.4.1-.8.1-1.3 0-.4.1-.8.2-1.3l.2-.7.2-.7v-.3-.3c0-.1.1-.3.2-.3.2-.1.4-.3.5-.5.2-.2.3-.4.2-.5 0-.2 0-.4.1-.6l.2-.4c.1-.1.1-.3.2-.4l-.3.2-.2.1h-.2c-.1 0-.1-.1-.1-.1s0-.3.1-.4c0-.1.1-.3.1-.4.1-.1.1-.2.2-.3l.2-.2zm-.4-2.7l-.3.5c-.1.2-.2.4-.2.6.1.1.2.1.3 0 .1-.1.2-.2.3-.4.1-.2.1-.4.2-.6s.1-.4.2-.6c-.1 0-.2 0-.3.1l-.2.4zm-.3 4.8c0-.1 0-.1.1-.2 0-.1 0-.1.1-.2h.2l-.1.6-.1.6c0 .1 0 .1-.1.1l-.2.1v-.3-.4s.1-.1.1-.3zm1.2-4.2c.1-.2 0-.3-.1-.3s-.2-.1-.3-.1c-.1.2-.1.4-.2.6 0 .2-.1.3-.1.5-.1.2 0 .3.3.2.2-.1.4-.2.4-.4-.1-.2-.1-.3 0-.5zm-.2 2.4H330l-.2.8h.2l.1-.4.2-.4zm.3 1.8c.1-.1.1-.2.1-.3 0-.1.1-.3.1-.4-.2.1-.3.2-.5.3 0 .1 0 .2.1.5l.2-.1zm-.2-5H330.7c.1-.2.1-.3.1-.5s0-.3.1-.5c0 0-.1 0-.2-.1 0 0 0 .1-.1.1s-.1.1-.1.1l-.1.5c.1.2.1.3 0 .4zm.1 1.7c.2 0 .4-.2.5-.4.1-.3.2-.7.2-1.1-.4.4-.6.9-.7 1.5zm1.1-2.4c0-.1 0-.1-.1-.1s-.1-.1-.1-.1l-.2.3c-.1.1-.2.3-.2.4l.1.1.1.1c.2-.2.3-.4.4-.7zm-.1-.6c.1-.1.2-.1.3-.2l.4-.2c-.4-.2-.6-.1-.7.2v.2zm.9 1.2h-.2c-.1 0-.1.1-.2.2 0 .2-.1.3-.2.4-.1.1-.1.3 0 .4h.1c.1 0 .1 0 .1-.1.2-.2.3-.5.4-.8v-.1zm1.4-9.7c0-.2.1-.4.2-.6.1-.2.2-.4.2-.6l-.2.1c-.2.5-.4.9-.7 1.4-.2.4-.4.9-.5 1.4-.1.3-.2.5-.3.7h.1l-.1.1-.1.1.1.2c0-.1.1-.1.2-.2.1 0 .1-.1.1-.1.1-.3.3-.6.4-.8l.3-.9c0-.1 0-.2.1-.3.1-.2.2-.3.2-.5zm.7-2c.1-.2.2-.3.3-.5.1-.2.2-.3.3-.5v-.2c-.1 0-.1.1-.2.1s-.1.1-.2.1c-.1.1-.2.3-.3.4 0 .2 0 .4.1.6zm.8-1.3c.3-.2.2-.4-.1-.5l-.3.6h.2c.1 0 .2-.1.2-.1zm.2 2.6l.3-.6c.1-.2.2-.4.3-.7-.2 0-.3.1-.4.2-.1.1-.1.2 0 .4l-.4.4c0 .1.1.2.2.3zm.4-4.9c-.2.1-.3.3-.3.5s-.1.3-.1.5h.2c.1-.2.2-.3.3-.5.1-.1.2-.3.3-.5v-.1h-.3c0 .1-.1.1-.1.1zm.9 2.2v-.1c0-.1-.1-.1-.1-.2h-.1c-.1.1-.1.2-.2.3-.1.1-.1.2-.2.3-.1 0-.1.1-.2.1s-.1.1-.2.1v.5c.1 0 .3-.1.4-.2.1-.1.1-.2.2-.3 0-.1.1-.2.1-.3 0 0 .1-.1.3-.2zm.2-4v-.1l-.1-.1c-.1 0-.2.1-.3.2l-.2.2-.2.2c.1 0 .2.1.1.2s-.1.2-.2.3c-.1.1-.1.2-.2.4 0 .1 0 .2.2.3l.4-.8c.3-.2.4-.5.5-.8zm1 7.1v.2c.1 0 .2-.1.3-.1.1 0 .2-.1.3-.1v-.2-.3l-.3.3-.3.2zm2.6-.3v-.2l-.2-.1h-.2c-.3.2-.5.4-.8.6-.3.2-.5.4-.7.6-.1.1-.2.2-.2.3 0 .1-.1.2-.1.3 0 .1 0 .1.1.1.6-.5 1.4-1 2.1-1.6zm-1.7-.4c0 .1 0 .2.1.2l.7-.5.7-.5v-.1-.1l-.8.5c-.3.2-.5.4-.7.5zm1.7-1.9l2.2-1.7 2.1-1.8c.7-.6 1.4-1.2 1.9-1.8.7-.6 1.3-1.3 1.9-1.9.6-.5 1.1-1.1 1.6-1.7l1.5-1.8c.2-.2.4-.5.5-.8.2-.3.3-.6.4-1-.4.1-.7.3-1 .4-.3.1-.7.3-.9.6l-.6.5c-.2.1-.4.3-.5.4-.2.2-.4.3-.6.4-.2.1-.4.2-.5.4-.1 0-.1.1-.1.1v.1c-.1.2-.2.3-.3.4l-.9.6-.9.6c-.4.3-.8.7-1.1 1.1-.2.3-.4.5-.5.8-.1.3-.3.5-.5.8-.3.4-.6.7-.9 1-.3.3-.6.6-.9 1-.5.5-.9 1.1-1.3 1.7l-1.3 1.7c-.1.1-.2.2-.2.3l-.2.3.1.1.5-.3.5-.5zm1.3 1.3c.4-.1.7-.3 1-.6.3-.3.6-.5.9-.8l.5-.5c.2-.1.4-.3.5-.4 0-.1.1-.1.1-.2.1 0 .1-.1.1-.2l-.1-.1c-.1 0-.2.1-.3.2-.3.2-.6.5-.9.8-.3.3-.6.5-.9.8l-.7.6c-.2.2-.5.4-.7.6v.1h.2c.1-.2.1-.2.3-.3-.1 0-.1 0 0 0zm2 14.9l-.2.2-.1.1.4.4.1-.1c-.1-.2-.2-.4-.2-.6zm3.4-25.7c-.3.1-.6.3-.8.6-.2.2-.4.4-.8.5v.4l.8-.7.8-.7v-.1c.1 0 0 0 0 0zm3.2-2.1c-.1-.2-.1-.3-.2-.3s-.3.1-.4.2c0 .1.1.2.2.2.1.1.2 0 .4-.1zm2.3-1.7l-.7.3-.8.4c.2.2.5.2.7 0 .4-.1.6-.4.8-.7z"/><path class="st0" d="M384.8 9.6c.1.4.2.8.1 1.2 0 .4-.1.8-.1 1.2v.2c-.1.4-.1.8-.1 1.2s-.1.8-.1 1.1c-.1.3-.1.6-.2.8l-.2.9c0 .3-.1.5-.2.8 0 .4-.3.8-.6 1.1-.3.2-.5.4-.5.8-.1.2-.1.5-.3.7-.1.2-.2.3-.4.5s-.4.4-.6.7c-.2.3-.4.5-.5.8-.2.4-.6.7-1 .8l-.3.6c-.1.2-.3.3-.5.2-.2.2-.3.4-.5.3-.2 0-.4 0-.5.1.1-.4.2-.8.4-1.1.2-.3.4-.7.6-1l-.5.1c.1-.1.2-.3.3-.4.1-.1.2-.2.2-.3l.3-.3c.1-.1.1-.3.2-.4.1-.2.2-.4.3-.5.1-.2.2-.3.3-.5l.6-1.2.6-1.2c.1-.2.1-.3.1-.5s.1-.3.1-.5v-.2c0-.1-.1-.2-.1-.2 0-.2 0-.3.1-.4 0-.1.1-.2.1-.3.1-.7 0-.9-.4-.6l-.5.3-.5.3-.8.5c-.3.2-.6.3-.9.3-.1 0-.1 0-.1.1s-.1.1-.1.2l-.4.4c-.1.1-.2.2-.4.3-.2.1-.4.2-.5.4-.2.1-.3.3-.5.4l-.5.5c-.2.1-.3.3-.4.5-.1.2-.3.3-.4.4l-.5.3c-.4.3-.8.6-1.1 1l-.3.3-.3.3c-.1.2-.3.4-.6.5-.2.1-.4.3-.5.6l-.1.1c-.2.1-.3.2-.4.3l-.4.4v.2c0 .1-.1.2-.2.3-.1.1-.3.2-.4.3-.2.1-.3.2-.4.3-.4.4-.8.7-1.3 1.1-.1.4-.3.7-.6 1l-.8.8c-.2.3-.4.5-.6.8-.1.3-.3.5-.5.8-.2.2-.3.4-.5.6l-.5.6c-.1 0-.2.1-.3.2-.1.1-.1.2-.2.4 0 .1-.1.3-.2.4-.1.2-.2.4-.4.6-.2.2-.4.5-.5.8l-.3 1-.3.9c-.2.4-.1.7.2.9l.3.1c.1 0 .2 0 .3.1.1-.1.1-.1.1-.2l.1-.3c.2.2.4.4.7.3.3-.1.6-.2.8-.3 0-.1.1-.1.2-.1s.1 0 .2-.1l.9-.5.9-.6.8-.4c.3-.1.5-.3.8-.4.1 0 .1 0 .2-.1.2-.2.4-.4.7-.5.2-.1.5-.1.8.1v-.4c.2-.1.4-.2.5-.3l.6-.3c.1 0 .1.1.1.2l.1.2c.1-.1.3-.2.4-.3.3-.2.3-.3 0-.5l.3-.2c.1 0 .1 0 .2.2s.1.2.3 0l.8-.4c.3-.1.5-.2.8-.3.4-.1.8-.2 1.1-.3l.7-.2c.2-.1.5-.2.7-.4h.2c.3 0 .6-.1.9-.1.3-.1.6-.1.9-.1h.7c.1 0 .2 0 .4-.1.1-.1.2-.2.2-.3.2-.4.4-.4.6-.2l.6.6c.2.2.4.4.5.6l.6.9c.2.3.4.6.5 1 .1.3.2.7.3 1s.2.7.3 1c.1.1.1.2.1.3-.2.2-.2.5-.1.7.1.2.1.4.1.7v2.9c0 1.1-.2 2.1-.7 3-.1.2-.2.4-.2.6 0 .2-.1.4-.2.7-.2.3-.3.7-.5 1-.1.3-.3.6-.6.8-.1.1-.2.2-.2.3-.1.2-.2.5-.3.7l-.3.6c-.1.2-.3.4-.5.5l-.5.5c-.1.2-.3.4-.4.5l-.3.5-1 1.2c-.1.2-.2.3-.2.5-.3.1-.5.2-.6.5-.4.5-.8.9-1.3 1.2-.1 0-.1.1-.1.1-.2.3-.4.6-.7.8-.3.2-.6.4-.8.6l-.1.1c-.1.3-.3.5-.6.6-.3.1-.5.2-.7.4 0-.1-.1-.3-.2-.4-.2.2-.4.4-.6.5.2.1.3.2.4.3l-.5.6c-.1.2-.3.3-.5.5-.1 0-.1.1-.2.1-.1-.1-.3 0-.4.3l-.4.4c-.1.1-.3.2-.5.2-.1 0-.1 0-.2.1l-.2.2-.7.6c-.2.2-.5.4-.9.5-.1 0-.1.1-.2.2l-.2.2c-.1.1-.2.3-.4.4h-.4c-.1.4-.4.6-.8.8-.3.1-.5.2-.8.4-.3.2-.6.3-.9.5-.2.1-.5.2-.8.1-.2-.1-.4-.1-.6 0-.2.1-.4.3-.6.4-.1.1-.3.2-.5.3l-.5.1c-.3 0-.5.1-.7.2-.2.1-.4.2-.6.2l-.6.1-.7.1c-.3 0-.5.1-.8.1h-1c-.3 0-.7 0-1-.1l-.4-.1c-.2 0-.3-.1-.4-.2-.1-.1-.2-.2-.3-.2-.2 0-.3-.1-.5-.2-.3-.2-.6-.3-.9-.4-.3-.1-.6-.3-.9-.4-.2-.1-.4-.2-.5-.4-.2-.2-.3-.4-.5-.6-.1-.1-.1-.2-.1-.3 0-.1-.1-.2-.1-.3l-.3-.2c-.1-.1-.2-.2-.2-.4-.2-.3-.3-.5-.5-.8-.1-.3-.3-.6-.5-.8 0-.1-.1-.2-.1-.2 0-.1 0-.2-.1-.2-.3-.4-.4-.8-.5-1.2-.1-.5-.2-.9-.3-1.4-.1-.3-.1-.6-.2-.8 0-.3-.1-.6-.1-.9v-2c0-.7.1-1.4.2-2.1.1-.2.1-.5.2-.7.1-.2.2-.5.2-.7.1-.1.1-.2.1-.4 0-.1.1-.3.1-.4.1-.3.3-.6.6-.8-.1.2-.1.3-.2.5l-.2.6c.3.1.5.4.4.7 0 .3-.1.7-.1 1 0 .2 0 .3-.1.4V50.9c0 .3 0 .6.1.9.1.2.1.5.2.7 0 .1 0 .3.2.3l.9.7c.3.2.6.4 1 .5.3.1.5.1.8.2.3.1.5.2.8.2.2.1.4.1.6.1h.7c.3 0 .6 0 .9-.1.3-.1.6-.1.9-.1h1.5c.2 0 .5-.1.7-.2.3-.1.7-.2 1.1-.2.3 0 .7-.1.9-.3.2-.1.3-.1.5-.2l.5-.1c.3-.1.6-.2.8-.4.3-.1.5-.3.8-.4.3-.1.5-.2.8-.3.3-.1.5-.3.7-.5 0-.1.1-.1.1-.2.2 0 .5-.1.6-.3.2-.2.4-.3.6-.4.2-.1.4-.2.6-.4l.6-.5c.3-.2.6-.4.8-.7.3-.2.5-.4.8-.7.1-.1.3-.2.4-.2.2-.1.3-.3.3-.5h.3c.1 0 .1-.1.2-.2l.2-.2c0-.1.1-.1.2-.2.3-.2.6-.5.8-.7.3-.3.5-.5.8-.7.2-.2.5-.4.7-.7.2-.3.5-.5.7-.8.3-.3.5-.5.7-.8l.8-.8.1-.2.1-.2.6-.7c.2-.2.4-.5.5-.8l.4-.5c.1-.2.3-.4.4-.6l.9-1.5.9-1.6c.1-.3.3-.5.4-.8.1-.3.2-.6.4-.9v-.1-.1c.2-.4.4-.9.5-1.4.1-.5.1-1 .1-1.5 0-.4-.1-.9-.4-1.2-.1-.2-.3-.4-.4-.5-.1-.2-.2-.5-.2-.8 0-.2-.1-.4-.2-.4h-.8l-.4-.1c-.5.4-1.1.6-1.7.6-.1 0-.2 0-.4.1l-.5.3-.3.1-.3.1c-.1.1-.2.1-.3.1h.3c-.1 0-.2 0-.3.1l-.3.2c-.1.1-.1.1-.2.1-.1.1-.3.1-.4.1-.1 0-.3.1-.4.4 0 0-.1.1-.2.1-.2 0-.5.1-.7.2-.2.1-.5.3-.7.5l-.4.3c-.1.1-.3.1-.4.2-.3.1-.5.2-.7.4-.2.2-.4.3-.7.3h-.1v.1c-.1.2-.3.3-.5.4-.1.1-.2.1-.3.2-.1.1-.3.2-.3.3l-.1.1c-.2 0-.4.1-.5.2-.2.1-.3.3-.4.5 0 .2 0 .2-.1.2-.2 0-.3 0-.4.2-.1.1-.2.3-.4.4l-.2.1-.2.1c-.1.1-.3.1-.4.2l-.3.2-.4-.2-.5.3c-.2.2-.4.2-.6 0-.2-.2-.4-.3-.7-.3-.3 0-.5 0-.8.1-.1.1-.3.1-.4 0-.5-.3-.8-.8-1-1.4-.1-.2-.2-.3-.3-.5-.1-.2-.2-.4-.2-.7 0-.3-.1-.6-.2-.8-.1-.3-.1-.6-.1-.9-.2-.4-.2-.8-.2-1.2 0-.4.1-.9.1-1.3s.1-.9.2-1.5c.1-.5.3-1 .6-1.4v-.1c0-.3.1-.5.2-.7.1-.2.3-.5.4-.7 0-.2.1-.4.2-.6l.3-.5.8-1.2.7-1.1c0-.1.1-.1.1-.2s.1-.1.1-.1l.4-.3c.1-.1.2-.3.2-.6 0-.1.1-.1.2-.2.5-.6 1.1-1.2 1.6-1.9.6-.6 1.1-1.2 1.6-1.8.2-.2.5-.3.6-.6.2-.2.4-.5.6-.7.1-.1.3-.2.4-.3l.3-.3c.2-.2.3-.4.5-.5l.5-.5.5-.5c.1-.2.3-.3.5-.4.2-.1.4-.3.5-.5.1-.2.3-.4.5-.5.2-.1.4-.3.5-.4.2-.2.4-.4.6-.5l.6-.5.5-.4c.5-.3.9-.6 1.4-1 .4-.3.9-.6 1.4-.8.3-.1.5-.3.7-.4l.7-.5c.4-.3.8-.5 1.3-.6.4-.2.8-.2 1.3-.2.1 0 .2 0 .3.1l.2.2c.2.2.4.5.6.7.2.3.3.5.5.8.2.4.3.9.3 1.4v.2c.2-.2.3-.2.3-.1zM352 54l.2-.2s0-.2-.1-.2-.1 0-.1.1v.3zm.5 0v.2c.3 0 .6.1.8.2.2.2.5.3.8.3h.2c-.2-.3-.4-.5-.7-.6-.2-.1-.5-.1-.7-.2h-.2c-.1.1-.1.1-.2.1zm.2 1c.1 0 .1 0 .1-.1v-.1s-.1 0-.1.2zm3.6 1.1v-.2-.1h1.1c.2 0 .4 0 .5-.1.2-.1.4-.1.5.1.2-.3.4-.4.6-.3.2.1.4.1.6 0 .3-.1.7-.2 1.1-.3l1.1-.2h.1c.1-.2.4-.4.6-.4.2 0 .5 0 .7-.2.1-.1.2-.1.3-.1.1 0 .2-.1.3-.2l.5-.3.6-.3c.1-.1.2-.1.3-.1.1 0 .2-.1.3-.2.1-.2.3-.3.5-.4.2-.1.3 0 .5.2.2-.4.5-.8.8-1.2.3-.3.6-.5 1-.6l.1-.4c.1.1.2.2.2.3.1-.1.2-.2.3-.4.1-.2.1-.3.1-.5-.3.1-.5.2-.8.4l-.7.6c-.1 0-.1.1-.2.2-.1.2-.2.3-.3.4-.1 0-.3.1-.4.2-.4.2-.7.4-1.1.6l-1.1.6c-.2.1-.3.2-.5.2l-.5.2c-.3.1-.7.3-1 .4l-.9.3h-.1-.1c-.1 0-.1.1-.2.1s-.2.1-.3.1l-.5.1-.5.1c-.2 0-.4.1-.6.1l-.6.2c.1-.2.2-.4.3-.4.2 0 .3-.1.4-.2 0-.1-.1-.2-.1-.2l-.2.1c-.2.1-.3.2-.5.2-.2.1-.4.1-.5 0h-.3c-.1.1-.1.2-.2.3-.1.4-.6.6-1 .5-.2-.1-.3-.1-.4 0-.2.2-.5.1-.6-.2.1-.2.1-.3.1-.5-.4-.1-.8-.2-1.2-.1l-.2.1c-.1 0-.1.1-.2.2-.1.3-.4.4-.6.3h-.4c-.1 0-.3.1-.4.2l.7.5c.3-.2.6-.1.8.1.1.1.2.2.3.2H356.3zm-.8 1c.1.3.3.3.4.2.1-.2.2-.3.4-.3-.1-.1-.3-.1-.4-.1-.1 0-.2 0-.4.2zm.7-2.3c0 .1 0 .1 0 0l.2.1s.1 0 .1-.1v-.2l-.3.2zm.5 2.5c.1.2.3.3.5.2.1-.1.3-.1.5-.1-.1-.1-.3-.1-.4-.2-.2-.2-.3-.1-.6.1zm.1-2.5c.1.2.2.2.3.2s.2-.1.3-.3h-.6v.1zm17.4-6.4c.1-.2.1-.3.2-.5s.2-.3.3-.4l-.1-.1-.5.3c-.2.1-.3.2-.5.3 0 0 0 .1-.1.2v.2c0 .3-.1.4-.3.3 0 0-.1 0-.1-.1l-.1-.1-.3.3c-.1.1-.2.2-.3.2-.3.1-.5.3-.7.5-.2.2-.4.4-.7.6l-.9.8c-.3.2-.6.5-.9.8-.3.3-.7.5-1.1.8-.4.2-.7.5-1.1.8-.1.1-.2.1-.3.2-.1.1-.2.2-.3.2-.1.1-.2.1-.3.2l-.7.5-.4.6-.1.1-.1.1-.7.2c-.2.1-.4.2-.7.3l-.9.4-.9.3c-.6.2-1.1.3-1.7.4-.6.1-1.1.2-1.7.3-.1 0-.2.1-.3.2.1.1.2.3.3.3h.5l.8-.2c.2-.2.5-.3.8-.3.3 0 .6 0 .8-.2.1-.1.3-.1.5-.1h.5v.5c0-.1.1-.1.2-.2h.5c.1 0 .1-.1.2-.2l-.4-.1c.3-.3.7-.4 1.1-.5l1-.1c.1-.1.2-.3.2-.4.1 0 .2.1.2.2s.1.1.3 0v-.4c.1 0 .2-.1.3-.1.1 0 .3.1.4.1h.3c.1 0 .1-.2.1-.4V55c.2-.2.4-.3.6-.5.1-.1.2-.1.3-.2.1 0 .2-.1.4-.2.1-.1.2-.2.2-.3l.3-.3c.5.1.9-.3 1-.7.4-.2.7-.4 1-.6.4-.3.7-.6.9-1 0 .1.1.1.2.1s.2-.1.2-.3l.1-.1.1-.1c.2-.1.4-.3.5-.4l.6-.5.3-.3.3-.4.4-.4c.2-.1.2-.2.3-.4zm-13.3 5.5c-.1 0-.2 0-.3.1-.1.1-.2.2-.3.2v.1c.2-.1.3-.2.5-.2l.1-.2zm3.5-1.4c0 .1 0 .1 0 0 0 .1-.1.1-.1.1 0 .1.1.2.2.3.1-.1.1-.2.1-.2l-.2-.2zm.1 4c.1.1.2.1.3.1.1-.1.1-.2.1-.3-.2 0-.3.1-.4.2zm2.1-5c-.1-.1-.2-.2-.3-.1-.1.1-.2.2-.2.4.3 0 .5-.1.5-.3zm0-30.5l-.1.1V21.4l.1-.1V21zm1.2 31.3c0-.1 0-.2-.1-.3l-.1.2s-.1.1-.1.2.1.2.1.3c0-.2.1-.3.2-.4zm.2 2.5c.1 0 .1 0 .2-.1l.2-.2-.2-.3-.2.2v.4zm1.2-37.9c.1.2.2.3.2.3s.2-.1.3-.3h-.5zm.4 32.9l-.2.3c-.1.1-.1.2-.2.2.3.1.5 0 .6-.3V49.7h-.1l-.1.1zm1-.2c.1 0 .2 0 .3-.1.1-.1.1-.2.1-.3 0-.1.1-.2.1-.4-.2.1-.3.3-.4.4l-.1.4zm5.1-2.6v-.3l-.3.3-.3.2c.1.1.3.1.4.1 0-.1.1-.2.2-.3zm0-2.2v-.1c-.1 0-.2 0-.3.1v.1l.3-.1zm.2-.3c.1-.2.1-.2 0-.3l-.1.1c0 .1 0 .2.1.2zm.7.4l.4-.4c.2-.1.3-.3.4-.4-.1-.2-.1-.2-.2-.2s-.1.1-.2.2-.2.2-.2.3l-.2.5c0-.1.1 0 0 0zM390.6 40.8v-.2l-.1-.2c-.1-.3.1-.5.4-.6.1 0 .1-.1.2-.1s.2-.1.3-.1l.5-.1h.5c.2 0 .3 0 .5.1s.3.1.5.1h1.2c.2 0 .4.1.5.3.2.2.3.3.4.6.1.2.1.5.1.8 0 .3-.1.5-.2.8 0 .1-.1.1-.1.1-.1 0-.1.1-.1.2l-.3.4-.3.5c-.1.1-.1.2-.1.2 0 .1-.1.2-.1.2-.3.2-.5.4-.5.8-.1.3-.2.6-.3.8-.2.3-.4.7-.5 1-.2.3-.3.7-.5 1 0 .1-.1.1-.2.1h-.8c-.3-.1-.6-.3-.9-.5-.3-.2-.4-.6-.3-1.2h-.2l.4-5zm1.6-8.1l.4-.3c.1-.1.1-.3 0-.5h.2c.1.1.2.2.3.2.1.1.2.1.2.3 0 0 0 .1-.1.3s-.2.2-.2.3c-.1 0-.3-.1-.4-.1-.1-.1-.3-.2-.4-.2zm0 .5h.9l-.2.3c-.1.1-.1.2-.2.3-.1 0-.1.1-.2.1l-.2.1v-.4c0-.1 0-.3-.1-.4zm.2 2c-.1-.2-.1-.5-.1-.7 0-.1.2-.2.5-.2-.1.2-.1.3-.2.5l-.2.4zm1.2-5.9c0 .1 0 .1.1.2 0 .1 0 .1.1.2-.1.1-.2.1-.3.1l-.1.1-.1.1c.1.1.1.2.2.3h.1c-.1.2-.3.4-.4.6-.1.2-.2.4-.4.6l-.1.1h-.1v-.2l.1-.4v-.3-.6l.3-.6-.3-.3c.1 0 .2 0 .2-.1l.1-.3c0-.1.1-.2.2-.2.1-.1.2-.1.3 0l-.1-.3V28c.1-.3.1-.6.2-.9.1-.3.2-.6.3-1 .1-.1.2-.1.3-.2v.4c0 .2 0 .4-.1.6-.1.2-.1.4-.2.5-.1.2-.1.3-.2.5-.1.1-.1.2 0 .3.4.2.3.8-.1 1.1zm.2-6.5c-.1.3-.2.7-.3 1-.1.3-.2.6-.3 1-.2-.2-.3-.5-.2-.8 0-.3.2-.5.4-.6l-.1-.2v-.1l.2-.2.3-.1zm-.5-.3l.3-1.8.3-1.8v-.1-.1c.1-.3.2-.6.2-.9.1-.3.1-.6.2-.9.2-.4.2-.8.2-1.2 0-.4.1-.8.3-1.2.1-.2.1-.4.1-.6 0-.2 0-.4.1-.6 0-.1.1-.2.1-.3l.1-.3c.1-.6.3-1.2.3-1.9.1-.6.2-1.3.4-1.9l.2-1.3.2-1.3c.1-.5.2-1 .2-1.5l.2-1.5c.3-.3.3-.6.3-.9v-.9c0-.3.2-.6.4-.7.2-.1.3-.2.5-.3.2-.1.3-.2.5-.3.2-.1.4-.1.6-.1.2 0 .4 0 .6-.1.3-.1.5-.1.8-.1.2 0 .5.1.7.2l.9.2c.3.1.5.3.6.6l.1.1c0 .3 0 .6-.1.9v.9c0 .4-.1.8-.2 1.2-.1.4-.2.7-.3 1.1l-.3 1.2c-.1.4-.2.8-.4 1.3 0 .1-.1.1-.1.2s-.1.1-.1.2l-.2.3c-.1.1-.1.2-.2.4s-.1.3-.2.5-.2.4-.2.5v.7c-.1.2-.1.4-.2.6l-.2.5v.5c-.2.1-.3.1-.5.2-.1.1-.1.2 0 .5.1.1.1.2.1.3 0 .1 0 .3-.1.4v.1c-.3.3-.5.7-.6 1.1l-.3 1.2-.1.1c-.1-.1-.2-.2-.2-.4 0 .1 0 .1-.1.1v.1c.1.3 0 .5-.3.5-.1 0-.1.1-.2.2s-.1.2-.1.3V17.3c0 .1-.1.1-.1.1l-.4.2c.3.3.2.7-.2 1.1-.1.1-.1.2-.2.4 0 .1-.1.3-.1.4l-.2.4-.2.5h.4v.1c-.1 0-.2.1-.2.1-.1 0-.2.1-.3.1l.3.3-.3.3v.2c.1.1.1.2.1.3h-.6c-.2 0-.2-.1-.1-.4 0 0 .1-.1 0-.1l-.1-.2h-.1-.1c-.1.1-.1.2-.1.4 0 .1 0 .3-.1.4l-.2.2h-.2l.2-.5c.1-.1.1-.3.2-.4.1-.1.2-.2.4-.3.2-.1.3-.2.4-.3-.5.1-.7-.1-.7-.5 0-.6 0-.1.1-.2s.2-.2.3-.2c-.1 0-.2-.1-.3-.2-.1-.1 0-.2.3-.4v-.2l.1-.4c0-.1.1-.2.1-.4l-.2-.2-.2-.3-.1.1s-.1 0-.1.1l-.2.7c-.1.2-.1.5-.2.8-.1.2-.1.4-.2.5-.1.2-.2.3-.2.5-.2.5-.3.9-.4 1.4 0 .2-.1.3-.1.5-.1.3-.3.3-.5.3zm.7 5c.1-.1.3-.1.4-.1.2 0 .3-.1.5-.1.1-.1.3-.1.4-.2.1-.1.3-.3.3-.5l.1.1v.3l-.2.4c0 .1-.1.2-.2.3-.1.1-.2.1-.3 0-.1 0-.2-.1-.3-.1h-.6l-.1-.1c0 .1 0 .1 0 0zm.3 1.8c.1-.3.2-.4.4-.4.4 0 0 0 .1.2v.3l-.1.5c0 .2-.1.4-.1.6l-.3-.3-.2-.2.3-.3c.1 0 .2-.1.2-.1.1 0 .1-.1 0-.2s0-.1-.1-.1c0 .1-.1 0-.2 0zm.3-1.2c.2 0 .3.2.2.4 0 0-.1.1-.3.2v-.5c0-.1.1-.1.1-.1zm.8-2.1c0-.1.1-.2.2-.4h-.4c-.1 0-.1-.1-.2-.1s-.1 0-.2-.1c0 0 .1-.1.2-.1V25v-.4-.2l.1-.2.1.1s.1.1.1.2.1.2.1.2.1 0 .3-.1c.1-.1.2-.1.3-.1-.1.1-.1.1-.1.2s0 .1-.1.2l-.3.3h.5c-.1.4-.3.8-.6 1.2-.2.4-.5.6-.9.8l-.1-.1.4-.5v-.3-.3h.6zm0-3.3l.5.1.5.1-.2.2-.2.2c.1 0 .1.1.2.1s.2 0 .2.1-.1.1-.2.2l-.2.2c0 .1.1.2.1.3h-.8c-.1-.1-.1-.2-.1-.3.1-.1.2-.2.3-.2h.1l.1.1.1-.1c-.1-.1-.2-.1-.2-.2-.2-.1-.3-.1-.4-.2 0-.2.1-.3.2-.6zm.2-5c.1-.1.1-.3.1-.4 0-.1.1-.3.1-.4h-.2c-.1.3-.2.5-.3.8v.1l.1.1.2-.2z"/></g><mask id="masking" maskUnits="objectBoundingBox"><path class="st1 mask" d="M31.1 93.3s-32.7 22.3-28.5 44.1c2.3 11.8 34.1-32.9 34.1-32.9" stroke-dasharray="106.089,106.089"/><path class="st1 mask" d="M19.4 115.6s13.3-11.6 23.9-12.9" stroke-dasharray="27.4747,27.4747"/><path class="st1 mask" d="M37.3 102.5s-17.4 37.3-14.4 53.4" stroke-dasharray="55.8753,55.8753"/><path class="st1 mask" d="M42.5 99.8s11.2-10 30.4-14.3" stroke-dasharray="33.889,33.889"/><path class="st1 mask" d="M51.7 94c-7.4 13.6-13.1 47.5-13.1 47.5" stroke-dasharray="49.425,49.425"/><path class="st1 mask" d="M41.2 115.6s13.4-10.9 25.3-13.2" stroke-dasharray="28.7697,28.7697"/><path class="st1 mask" d="M36.7 132.9C58.6 116.4 71.5 114 71.5 114" stroke-dasharray="39.8349,39.8349"/><path class="st1 mask" d="M67.9 95.6s29.6-25.9 42-15" stroke-dasharray="47.5589,47.5589"/><path class="st1 mask" d="M88.4 77.9c-4.6 11.1-15.4 52-15.4 52" stroke-dasharray="54.2525,54.2525"/><path class="st1 mask" d="M120.6 69.7s14.7-6.2-6.1 40.2c-4 8.9 31.5-40.5 31.5-40.5s-4.5 23.8-13.9 41.5-21.7 21.6-22.4 12.5" stroke-dasharray="176.294,176.294"/><path class="st1 mask" d="M146.3 77.9s21.1-24.3 28.7-16.4c7.6 7.9-10 42.5-22.3 45.5-12.4 2.9 4.7-32 10.9-32.8" stroke-dasharray="131.01,131.01"/><path class="st1 mask" d="M192.9 53.2s-18.6 37.5-10.7 47.8 28.8-43.5 29.5-50.5" stroke-dasharray="112.985,112.985"/><path class="st1 mask" d="M206.1 67.6s26.6-32.5 35.6-25.1-30.8 43.5-32.2 27.9" stroke-dasharray="98.5868,98.5868"/><path class="st1 mask" d="M224.6 52.3s-23.8 45.1-7.9 40.1" stroke-dasharray="47.1907,47.1907"/><path class="st1 mask" d="M213.9 70.7s31.8 32.6 39.6 15.6" stroke-dasharray="48.323,48.323"/><path class="st1 mask" d="M277.8 36.1S261.9 64.9 260 83.6" stroke-dasharray="50.9845,50.9845"/><path class="st1 mask" d="M256.6 59.2s.5 15.1 22-6.9-2.9-4-5.9 0-6.9 5.2-5.7 8.3c1.3 3.1 14.9 20.4 17.6 12.5" stroke-dasharray="96.9766,96.9766"/><path class="st1 mask" d="M304.2 27.2c-4.2 6.6-6.6 13.2-6.6 13.2" stroke-dasharray="14.7818,14.7818"/><path class="st1 mask" d="M296.2 44s-11.7 16.6-8 31.8" stroke-dasharray="33.6671,33.6671"/><path class="st1 mask" d="M321.4 40.4s6.3-13.8-1-16.7-28 35.7-19.5 43.5 28.6-15.5 28.6-15.5" stroke-dasharray="105.528,105.528"/><path class="st1 mask" d="M346.2 19.3s-15.3 26.5-18.3 48.6" stroke-dasharray="52.1953,52.1953"/><path class="st1 mask" d="M325.4 43.5s-1.5 14.9 23-5.5-10-11.4-10.5 2.4 3.4 13.9 14.6 18.8" stroke-dasharray="97.1879,97.1879"/><path class="st1 mask" d="M378 23.4s10.2-11 4.3-14.8-23.7 23-18.6 26.8 8.8-10.2 17.1-6.9-8.5 28.8-23.1 28.8-6.7-13.6-6.7-13.6" stroke-dasharray="135.962,135.962"/><path class="st1 mask" d="M400.4 0s-4.7 11.9-7.9 35.1" stroke-dasharray="36.0382,36.0382"/><path class="st1 mask" d="M393.7 38.5s-1.6 4.5-2.6 9.9" stroke-dasharray="10.2444,10.2444"/></mask></svg>